<?xml version="1.0" encoding="UTF-8"?>
<svg fill="#FFFFFF" width="100pt" height="100pt" version="1.1" viewBox="0 0 100 100" xmlns="http://www.w3.org/2000/svg">
 <path d="m97.762 96.27h-6.8672v-94.031c0-0.89453-0.59766-1.4922-1.4922-1.4922h-7.9102c-0.89453 0-1.4922 0.59766-1.4922 1.4922v10.598h-14.328v-1.043c0-3.2852-2.6875-5.9688-5.9688-5.9688-3.2852 0-5.9688 2.6875-5.9688 5.9688v0.89453h-14.031v-0.89453c0-3.4336-2.8359-5.9688-5.9688-5.9688-3.2852 0-5.9688 2.6875-5.9688 5.9688v0.89453h-7.6133l-0.003906-10.449c0-0.89453-0.59766-1.4922-1.4922-1.4922h-8.0586c-0.89453 0-1.4922 0.59766-1.4922 1.4922v94.031h-6.8672c-0.89453 0-1.4922 0.59766-1.4922 1.4922s0.59766 1.4922 1.4922 1.4922h24.777c0.89453 0 1.4922-0.59766 1.4922-1.4922s-0.59766-1.4922-1.4922-1.4922h-6.8672v-14.031h7.3125v0.89453c0 3.2852 2.6875 5.9688 5.9688 5.9688 3.2852 0 5.9688-2.6875 5.9688-5.9688v-0.89453h2.3867v0.89453c0 3.2852 2.6875 5.9688 5.9688 5.9688 3.2852 0 5.9688-2.6875 5.9688-5.9688v-0.89453h7.4609v0.89453c0 3.2852 2.6875 5.9688 5.9688 5.9688 3.2852 0 5.9688-2.6875 5.9688-5.9688v-0.89453h7.0156v14.031h-6.8672c-0.89453 0-1.4922 0.59766-1.4922 1.4922s0.59766 1.4922 1.4922 1.4922h24.777c0.89453 0 1.4922-0.59766 1.4922-1.4922 0.011719-0.89453-0.88281-1.4922-1.7773-1.4922zm-46.27-40.148c0-1.6406 1.3438-2.9844 2.9844-2.9844 1.6406 0 2.9844 1.3438 2.9844 2.9844v4.9258c0 1.6406-1.3438 2.9844-2.9844 2.9844-1.6406 0-2.9844-1.3438-2.9844-2.9844zm2.9844-5.9727c-3.2852 0-5.9688 2.6875-5.9688 5.9688v0.89453h-1.4922v-0.89453c0-3.2852-2.6875-5.9688-5.9688-5.9688-3.2852 0-5.9688 2.6875-5.9688 5.9688v0.89453l-15.078 0.003906v-19.105h6.1211v0.89453c0 3.2852 2.6875 5.9688 5.9688 5.9688 3.2852 0 5.9688-2.6875 5.9688-5.9688v-0.89453h6.7188v0.89453c0 3.2852 2.6875 5.9688 5.9688 5.9688 3.2852 0 5.9688-2.6875 5.9688-5.9688v-0.89453h2.0898v0.89453c0 3.2852 2.6875 5.9688 5.9688 5.9688 3.2852 0 5.9688-2.6875 5.9688-5.9688v-0.89453h9.2539v19.105h-19.547v-0.89453c0-3.2852-2.6875-5.9727-5.9727-5.9727zm-16.418 5.9727c0-1.6406 1.3438-2.9844 2.9844-2.9844s2.9844 1.3438 2.9844 2.9844v4.9258c0 1.6406-1.3438 2.9844-2.9844 2.9844s-2.9844-1.3438-2.9844-2.9844zm-2.9844-17.316c0 1.6406-1.3438 2.9844-2.9844 2.9844s-2.9844-1.3438-2.9844-2.9844v-4.9258c0-1.6406 1.3438-2.9844 2.9844-2.9844s2.9844 1.3438 2.9844 2.9844zm18.656 0c0 1.6406-1.3438 2.9844-2.9844 2.9844s-2.9844-1.3438-2.9844-2.9844v-4.9258c0-1.6406 1.3438-2.9844 2.9844-2.9844s2.9844 1.3438 2.9844 2.9844zm14.031 0c0 1.6406-1.3438 2.9844-2.9844 2.9844s-2.9844-1.3438-2.9844-2.9844v-4.9258c0-1.6406 1.3438-2.9844 2.9844-2.9844s2.9844 1.3438 2.9844 2.9844zm-11.047-27.012c0-1.6406 1.3438-2.9844 2.9844-2.9844s2.9844 1.3438 2.9844 2.9844v4.9258c0 1.6406-1.3438 2.9844-2.9844 2.9844s-2.9844-1.3438-2.9844-2.9844zm-25.969 0c0-1.6406 1.3438-2.9844 2.9844-2.9844 1.4922 0 2.9844 1.1953 2.9844 2.9844v4.9258c0 1.6406-1.3438 2.9844-2.9844 2.9844s-2.9844-1.3438-2.9844-2.9844zm-2.9844 4.0273v0.89453c0 3.2852 2.6875 5.9688 5.9688 5.9688 3.2852 0 5.9688-2.6875 5.9688-5.9688v-0.89453h14.031v0.89453c0 3.2852 2.6875 5.9688 5.9688 5.9688 3.2852 0 5.9688-2.6875 5.9688-5.9688v-0.89453h14.328v19.105h-9.2539v-0.89453c0-3.2852-2.6875-5.9688-5.9688-5.9688-3.2852 0-5.9688 2.6875-5.9688 5.9688v0.89453h-2.0898v-0.89453c0-3.2852-2.6875-5.9688-5.9688-5.9688-3.2852 0-5.9688 2.6875-5.9688 5.9688v0.89453h-6.7148v-0.89453c0-3.4336-2.6875-5.9688-5.9688-5.9688-3.2852 0-5.9688 2.6875-5.9688 5.9688v0.89453h-6.1211l-0.003906-19.105zm-15.672 80.449v-92.539h4.9258v92.539zm24.18-13.137c0 1.6406-1.3438 2.9844-2.9844 2.9844s-2.9844-1.3438-2.9844-2.9844v-4.9258c0-1.6406 1.3438-2.9844 2.9844-2.9844s2.9844 1.3438 2.9844 2.9844zm14.18 0c0 1.6406-1.3438 2.9844-2.9844 2.9844s-2.9844-1.3438-2.9844-2.9844v-4.9258c0-1.6406 1.3438-2.9844 2.9844-2.9844 1.4922 0 2.9844 1.1953 2.9844 2.9844zm19.402 0c0 1.6406-1.3438 2.9844-2.9844 2.9844-1.6406 0-2.9844-1.3438-2.9844-2.9844v-4.9258c0-1.6406 1.3438-2.9844 2.9844-2.9844 1.6406 0 2.9844 1.3438 2.9844 2.9844zm2.9844-3.8789v-0.89453c0-3.4336-2.6875-5.9688-5.9688-5.9688-3.2852 0-5.9688 2.6875-5.9688 5.9688v0.89453h-7.4609v-0.89453c0-3.4336-2.8359-5.9688-5.9688-5.9688-3.2852 0-5.9688 2.6875-5.9688 5.9688v0.89453h-2.3867v-0.89453c0-3.2852-2.6875-5.9688-5.9688-5.9688-3.2852 0-5.9688 2.6875-5.9688 5.9688v0.89453h-7.3125l-0.011719-19.254h15.074v0.89453c0 3.2852 2.6875 5.9688 5.9688 5.9688 3.2852 0 5.9688-2.6875 5.9688-5.9688v-0.89453h1.4922v0.89453c0 3.2852 2.6875 5.9688 5.9688 5.9688 3.2852 0 5.9688-2.6875 5.9688-5.9688v-0.89453h19.551v19.105h-7.0078zm10.148 17.016v-92.539h4.9258v92.539z"/>
</svg>
