<?xml version="1.0" encoding="UTF-8"?>
<svg width="126px" height="124px" viewBox="0 0 126 124" version="1.1" xmlns="http://www.w3.org/2000/svg" xmlns:xlink="http://www.w3.org/1999/xlink">
    <title>np_abacus_1573672_FFFFFF</title>
    <g id="Page-1" stroke="none" stroke-width="1" fill="none" fill-rule="evenodd">
        <g id="Front-page" transform="translate(-396.000000, -2615.000000)">
            <rect id="Rectangle" stroke="#979797" stroke-width="2" fill="#232425" x="1" y="1" width="1440" height="4580"></rect>
            <g id="Group-3" transform="translate(345.000000, 1714.000000)">
                <g id="image-element" transform="translate(0.000000, 728.000000)">
                    <g id="Group-2" fill="#232425">
                        <rect id="Rectangle" x="0" y="0" width="752" height="322"></rect>
                        <rect id="Rectangle" x="0" y="138" width="228.249322" height="184"></rect>
                    </g>
                    <g id="np_abacus_1573672_FFFFFF" transform="translate(51.000000, 173.000000)" fill="#FFFFFF" fill-rule="nonzero">
                        <path d="M106.252479,22.3935824 L97.2893146,22.3935824 C96.9010411,24.096573 96.0971381,25.5532551 94.8830096,26.7689559 C93.2807196,28.4719465 91.2627721,29.3207782 88.8346273,29.3207782 C86.5049017,29.3207782 84.4869543,28.44461 82.7862449,26.697741 C81.5229767,25.4327785 80.7464576,23.9980216 80.4565194,22.3935824 L69.3058688,22.3935824 C68.9175952,24.096573 68.1136922,25.5532551 66.8995637,26.7689559 C65.2972737,28.4719465 63.2793263,29.3207782 60.8511814,29.3207782 C58.5214559,29.3207782 56.5035084,28.44461 54.802799,26.697741 C53.5395309,25.4327785 52.7630117,23.9980216 52.4730735,22.3935824 L19.8952762,22.3935824 L19.8952762,49.5267579 L27.9124663,49.5267579 C28.2515302,48.3110711 28.935118,47.0953563 29.9522536,45.8796554 C31.7515224,44.2258705 33.7913097,43.3990481 36.0717556,43.3990481 C38.4506208,43.3990481 40.4685682,44.2259266 42.1201379,45.8796554 C43.1427896,46.9036787 43.870127,48.1194216 44.3076243,49.5267579 L55.8957722,49.5267579 C56.2348361,48.3110711 56.9184238,47.0953563 57.9355595,45.8796554 C59.7292284,44.2258705 61.7691557,43.3990481 64.0550614,43.3990481 C66.4339266,43.3990481 68.4518741,44.2259266 70.1034438,45.8796554 C71.1260954,46.9036787 71.8534329,48.1194216 72.2909302,49.5267579 L83.4415808,49.5267579 C83.7806447,48.3110711 84.4642324,47.0953563 85.4813681,45.8796554 C87.275037,44.2258705 89.3422641,43.3990481 91.6774496,43.3990481 C94.0071751,43.3990481 96.0031426,44.2259266 97.6547124,45.8796554 C98.677364,46.9036787 99.4047015,48.1194216 99.8421988,49.5267579 L106.256959,49.5267579 L106.252479,22.3935824 Z M116.380576,0.00152803727 C116.867297,0.00152803727 117.282912,0.171280361 117.621976,0.510799027 C118.01025,0.89959339 118.201657,1.33767747 118.201657,1.82505126 L118.201657,80.011494 C118.201657,80.4988678 118.004776,80.9369518 117.621976,81.3257462 C117.282912,81.6652649 116.872757,81.8350172 116.380576,81.8350172 C115.893855,81.8350172 115.456358,81.6652649 115.068084,81.3257462 C114.72902,80.9862275 114.559495,80.5481435 114.559495,80.011494 L114.559495,3.64748103 L109.894724,3.64748103 L109.894724,96.2030815 L114.559495,96.2030815 L114.559495,87.8137364 C114.559495,87.3263626 114.72902,86.8882785 115.068084,86.4994841 C115.456358,86.1599655 115.893855,85.9902131 116.380576,85.9902131 C116.867297,85.9902131 117.282912,86.1599655 117.621976,86.4994841 C118.01025,86.8882785 118.201657,87.3263626 118.201657,87.8137364 L118.201657,96.2030815 L124.178919,96.2030815 C124.66564,96.2030815 125.075782,96.3728339 125.414846,96.7123525 C125.803119,97.1066282 126,97.5447123 126,98.0320861 L126,122.176477 C126,122.663851 125.803133,123.074542 125.414846,123.414061 C125.075782,123.802855 124.660166,124 124.178919,124 L62.9671002,124 C62.4803792,124 62.0647638,123.802869 61.7256999,123.414061 C61.3374263,123.074542 61.1460195,122.658369 61.1460195,122.176477 C61.1460195,121.689103 61.3374263,121.251019 61.7256999,120.862225 C62.0647638,120.522706 62.4803792,120.352954 62.9671002,120.352954 L122.357531,120.352954 L122.357531,99.8562261 L3.64246934,99.8562261 L3.64246934,120.352954 L54.4355533,120.352954 C54.9222743,120.352954 55.3378897,120.522706 55.6769536,120.862225 C56.0652271,121.251019 56.256634,121.689103 56.256634,122.176477 C56.256634,122.663851 56.0652271,123.074542 55.6769536,123.414061 C55.3378897,123.802855 54.9277342,124 54.4355533,124 L1.82108067,124 C1.3343597,124 0.918744283,123.802869 0.579680393,123.414061 C0.196866775,123.074542 0,122.658369 0,122.176477 L0,98.0320861 C0,97.5447123 0.196866775,97.1066282 0.585154359,96.7178338 C0.924218249,96.3783152 1.33983366,96.2085628 1.82655463,96.2085628 L7.94605656,96.2085628 L7.94605656,40.7744549 C7.94605656,40.2870811 8.1155815,39.848997 8.45464539,39.4602026 C8.84291898,39.120684 9.28041626,38.9509316 9.76713723,38.9509316 C10.2538582,38.9509316 10.6640136,39.120684 11.0030635,39.4602026 C11.3913371,39.848997 11.5882179,40.2870811 11.5882179,40.7744549 L11.5882179,96.2085628 L16.2529889,96.2085628 L16.2529889,3.64735487 L11.5882179,3.64735487 L11.5882179,33.043147 C11.5882179,33.5305208 11.3913511,33.9686049 11.0030635,34.3573993 C10.6639996,34.6969179 10.2538442,34.8666703 9.76713723,34.8666703 C9.28041626,34.8666703 8.84291898,34.6969179 8.45464539,34.3573993 C8.1155815,34.0178806 7.94605656,33.5797965 7.94605656,33.043147 L7.94605656,1.82352323 C7.94605656,1.33614943 8.1155815,0.898065353 8.45464539,0.50927099 C8.84291898,0.169752324 9.28041626,0 9.76713723,0 L18.0741255,0 C18.5608465,0 18.970988,0.169752324 19.3100518,0.50927099 C19.6983254,0.898065353 19.8952062,1.33614943 19.8952062,1.82352323 L19.8952062,18.7440827 L52.6144026,18.7440827 C52.9042428,17.3367464 53.6097124,15.9731483 54.7307695,14.6588961 C56.5300383,13.0051112 58.5698256,12.1782888 60.8502714,12.1782888 C63.2291366,12.1782888 65.247084,13.0051672 66.8986537,14.6588961 C68.0142788,15.7760175 68.7689021,17.1395034 69.1572597,18.7440827 L80.5978485,18.7440827 C80.8931627,17.3367464 81.5931583,15.9731483 82.7142153,14.6588961 C84.5134841,13.0051112 86.5532714,12.1782888 88.8337173,12.1782888 C91.2125825,12.1782888 93.2305299,13.0051672 94.8820996,14.6588961 C96.0961581,15.8745829 96.8507674,17.2380548 97.1407056,18.7440827 L106.251569,18.7440827 L106.251569,1.82352323 C106.251569,1.33614943 106.421094,0.898065353 106.760158,0.50927099 C107.148431,0.169752324 107.585929,0 108.07265,0 L116.380576,0.00152803727 Z M119.443057,104.670679 C119.443057,105.158053 119.273532,105.568744 118.934468,105.908263 C118.546194,106.297057 118.108697,106.494202 117.621976,106.494202 L93.9369235,106.494202 C93.4502025,106.494202 93.0345871,106.297071 92.6955232,105.908263 C92.3072496,105.568744 92.1158428,105.152572 92.1158428,104.670679 C92.1158428,104.183305 92.3127096,103.745221 92.6955232,103.356427 C93.0345871,103.016908 93.4502025,102.847156 93.9369235,102.847156 L117.621976,102.847156 C118.157907,102.847156 118.595404,103.016908 118.934468,103.356427 C119.268058,103.745221 119.443057,104.183305 119.443057,104.670679 L119.443057,104.670679 Z M106.252759,83.6650731 L83.4424208,83.6650731 C83.0541472,85.3680637 82.2502442,86.8247458 81.0361158,88.0404466 C79.4338257,89.7434372 77.4158783,90.5922689 74.9877334,90.5922689 C72.6580079,90.5922689 70.6400605,89.7161007 68.939351,87.9692317 C67.6760829,86.7042692 66.8995637,85.2695123 66.6096255,83.6650731 L55.4589749,83.6650731 C55.0707013,85.3680637 54.2667983,86.8247458 53.0526699,88.0404466 C51.4503799,89.7434372 49.4324324,90.5922689 47.0042875,90.5922689 C44.674562,90.5922689 42.6566146,89.7161007 40.9559052,87.9692317 C39.692637,86.7042692 38.9161179,85.2695123 38.6261797,83.6650731 L19.8956962,83.6650731 L19.8956962,96.2106797 L106.252759,96.2106797 L106.252759,83.6650731 Z M106.252479,53.1744212 L100.132977,53.1744212 C99.8376628,55.0198416 99.0118919,56.6297481 97.6556924,57.9878788 C96.0534023,59.6908693 94.0627547,60.539701 91.6784296,60.539701 C89.2995644,60.539701 87.2597771,59.6635329 85.5589276,57.9111966 C84.2464358,56.6955097 83.4425608,55.118393 83.1526226,53.1689539 L72.5870283,53.1689539 C72.2971882,55.0143744 71.4714033,56.6242808 70.1097438,57.9824115 C68.5074537,59.685402 66.4895063,60.5342338 64.0613614,60.5342338 C61.7316359,60.5342338 59.7136884,59.6580656 58.012979,57.9057293 C56.7004872,56.6900425 55.9020722,55.1129258 55.606674,53.1634866 L44.6035825,53.1634866 C44.3137423,55.0089071 43.4879574,56.6188135 42.1262979,57.9769442 C40.5240079,59.6799348 38.5060604,60.5287665 36.0779155,60.5287665 C33.74819,60.5287665 31.7302426,59.6525983 30.0295331,57.900262 C28.7170413,56.6845752 27.9186263,55.1074585 27.6232281,53.1580194 L19.8959762,53.1580194 L19.8959762,79.9968024 L38.7678588,79.9968024 C39.0631729,78.589466 39.7631686,77.225868 40.8842256,75.9116158 C42.6834944,74.2578309 44.7232817,73.4310085 47.0037275,73.4310085 C49.3825927,73.4310085 51.4005402,74.2578869 53.0521099,75.9116158 C54.167735,77.0287372 54.9223583,78.3922231 55.3107158,79.9968024 L66.7513047,79.9968024 C67.0411449,78.589466 67.7466145,77.225868 68.8676715,75.9116158 C70.6669403,74.2578309 72.7067276,73.4310085 74.9871734,73.4310085 C77.3660386,73.4310085 79.3839861,74.2578869 81.0355558,75.9116158 C82.2496142,77.1273026 83.0042235,78.4907745 83.2941617,79.9968024 L106.247019,79.9968024 L106.247019,53.1748418 L106.252479,53.1744212 Z M84.0276032,20.5697508 L84.0276032,20.7887928 C84.0276032,22.1030451 84.4651144,23.2201945 85.340109,24.1455683 C86.3627606,25.1695916 87.5276032,25.6789326 88.8400872,25.6789326 C90.2018027,25.6789326 91.3393517,25.1696617 92.2634859,24.1455683 C93.2861376,23.2201104 93.7947964,22.1030451 93.7947964,20.7887928 L93.7947964,20.5697508 C93.7455783,19.3047883 93.2588657,18.1876949 92.3400654,17.2129753 C91.4158472,16.2875175 90.2509984,15.8275362 88.8455472,15.8275362 C87.4838317,15.8275362 86.3189829,16.31491 85.345569,17.2842183 C84.4596405,18.1658678 84.0276032,19.2611341 84.0276032,20.569919 L84.0276032,20.5697508 Z M56.0389913,20.7887928 C56.0389913,22.1030451 56.4764886,23.2201945 57.3514831,24.1455683 C58.3741348,25.1695916 59.5389695,25.6789326 60.8514614,25.6789326 C62.1639532,25.6789326 63.328746,25.1696617 64.3459796,24.1455683 C65.3139476,23.1708347 65.8007106,22.0536993 65.8007106,20.7887928 L65.8007106,20.5697508 C65.7514925,19.3047883 65.2647799,18.1876949 64.3459796,17.2129753 C63.4217614,16.2875175 62.2569126,15.8275362 60.8514614,15.8275362 C59.4897458,15.8275362 58.3248971,16.31491 57.3514831,17.2842183 C56.4764886,18.1603865 56.0389913,19.2555266 56.0389913,20.5643115 L56.0389913,20.7887928 Z M60.5616632,48.5079496 C59.7358923,49.3348281 59.298395,50.3040242 59.2491713,51.426641 L59.2491713,51.935912 C59.2491713,53.2994539 59.6866686,54.4385286 60.5616632,55.3639024 C61.5843148,56.3879257 62.7491496,56.8972667 64.0616414,56.8972667 C65.4233569,56.8972667 66.5609058,56.3879958 67.4850401,55.3639024 C68.5076917,54.4384445 69.0163506,53.2993698 69.0163506,51.935912 L68.9452576,51.4978279 C68.8960395,50.3807205 68.4366688,49.3567533 67.5616742,48.4367066 C66.637456,47.5112488 65.4726072,47.0512675 64.067156,47.0512675 C62.6945065,47.0512675 61.5296717,47.53316 60.5617178,48.5079496 L60.5616632,48.5079496 Z M88.1078918,48.4312842 C87.2821209,49.3074524 86.8446236,50.3040411 86.7953999,51.4211905 L86.7953999,51.4923788 L86.7243056,51.9304629 C86.7243056,53.1954254 87.1836847,54.3399954 88.107889,55.3584533 C89.1305406,56.3824766 90.3172152,56.8918177 91.6789868,56.8918177 C92.9422549,56.8918177 94.0852918,56.3825467 95.1023855,55.3584533 C96.0211297,54.4329954 96.4859688,53.2939207 96.4859688,51.9304629 L96.4859688,51.4211919 C96.4367493,50.3533602 95.97738,49.3511921 95.1023855,48.4312856 C94.1781672,47.5058277 93.0351583,47.0458465 91.6789868,47.0458465 C90.2680755,47.0513236 89.0813029,47.511309 88.107889,48.4312856 L88.1078918,48.4312842 Z M36.0730155,47.0513264 C34.7113,47.0513264 33.5464513,47.5387002 32.5730373,48.5080085 C31.7964762,49.2856112 31.3589789,50.2603448 31.2605455,51.4266999 L31.2605455,51.9359709 C31.2605455,53.2995128 31.6980428,54.4385875 32.5730373,55.3639612 C33.595689,56.3879845 34.7605237,56.8973256 36.0730155,56.8973256 C37.3855074,56.8973256 38.5503001,56.3880546 39.5729938,55.3639612 C40.5409617,54.3892277 41.0277247,53.2502231 41.0277247,51.9359709 L40.951162,51.4978868 C40.9019439,50.3807794 40.4425732,49.3568122 39.5675786,48.4367655 C38.6488343,47.5113076 37.4839716,47.0513264 36.0730603,47.0513264 L36.0730155,47.0513264 Z M42.1979774,82.0602022 C42.1979774,83.3744545 42.6354747,84.4916039 43.5104693,85.4169777 C44.5331209,86.441001 45.6979557,86.950342 47.0104475,86.950342 C48.3229393,86.950342 49.4877321,86.4410711 50.5104257,85.4169777 C51.4783937,84.4477114 51.9651567,83.3251087 51.9651567,82.0602022 L51.9651567,81.8411602 C51.9159372,80.5761977 51.429226,79.4591043 50.5104257,78.4843847 C49.5862075,77.5589269 48.4213587,77.0989456 47.0104475,77.0989456 C45.648732,77.0989456 44.4838832,77.5863194 43.5104693,78.5556277 C42.6354747,79.4317959 42.1979774,80.526936 42.1979774,81.8357209 L42.1979774,82.0602022 Z M74.9885734,77.0988475 C73.6268579,77.0988475 72.4620091,77.5862213 71.4940551,78.5555296 C70.6190606,79.4316978 70.1815633,80.5268379 70.1815633,81.8356228 L70.1815633,82.0546648 C70.1815633,83.3689171 70.6190606,84.4860665 71.4940551,85.4114403 C72.5167068,86.4354636 73.6815415,86.9448047 74.9885734,86.9448047 C76.3502889,86.9448047 77.4932978,86.4355337 78.4119721,85.4114403 C79.4346237,84.4859824 79.9432826,83.3689171 79.9432826,82.0546648 L79.9432826,81.8356228 C79.8940645,80.5706603 79.4073519,79.4535669 78.4885516,78.4788474 C77.5643334,77.5588708 76.3994846,77.0988475 74.9885734,77.0988475 L74.9885734,77.0988475 Z" id="Shape"></path>
                    </g>
                </g>
            </g>
        </g>
    </g>
</svg>