<?xml version="1.0" encoding="UTF-8"?>
<svg width="134px" height="123px" viewBox="0 0 134 123" version="1.1" xmlns="http://www.w3.org/2000/svg" xmlns:xlink="http://www.w3.org/1999/xlink">
    <g id="Page-1" stroke="none" stroke-width="1" fill="none" fill-rule="evenodd">
        <g id="Front-page" transform="translate(-392.000000, -1967.000000)">
            <rect id="Rectangle" stroke="#979797" stroke-width="2" fill="#232425" x="1" y="1" width="1440" height="4580"></rect>
            <g id="Group-3" transform="translate(345.000000, 1714.000000)">
                <g id="image-element" transform="translate(0.000000, 84.000000)">
                    <g id="Group-2">
                        <rect id="Rectangle" fill="#232425" x="0" y="0" width="752" height="322"></rect>
                        <rect id="Rectangle" fill="#232425" x="0" y="138" width="228.249322" height="184"></rect>
                        <g id="noun_website_1872076" transform="translate(47.000000, 169.000000)" fill="#FFFFFF" fill-rule="nonzero">
                            <path d="M8.375,101.110169 L52.7625,101.110169 C51.715625,105.905085 47.528125,109.449153 42.503125,109.449153 C41.246875,109.449153 40.409375,110.283051 40.409375,111.533898 L40.409375,120.915254 C40.409375,122.166102 41.246875,123 42.503125,123 L91.496875,123 C92.753125,123 93.590625,122.166102 93.590625,120.915254 L93.590625,111.533898 C93.590625,110.283051 92.753125,109.449153 91.496875,109.449153 C86.471875,109.449153 82.284375,105.905085 81.2375,101.110169 L125.625,101.110169 C130.23125,101.110169 134,97.3576271 134,92.7711864 L134,8.33898305 C134,3.75254237 130.23125,0 125.625,0 L8.375,0 C3.76875,0 0,3.75254237 0,8.33898305 L0,92.7711864 C0,97.3576271 3.76875,101.110169 8.375,101.110169 Z M89.403125,113.410169 L89.403125,118.830508 L44.596875,118.830508 L44.596875,113.410169 C51.0875,112.576271 56.1125,107.364407 56.95,101.110169 L76.840625,101.110169 C77.8875,107.364407 82.9125,112.576271 89.403125,113.410169 Z M125.625,96.940678 C100.290625,96.940678 31.825,96.940678 8.375,96.940678 C6.071875,96.940678 4.1875,95.0644068 4.1875,92.7711864 L4.1875,78.8033898 L129.8125,78.8033898 L129.8125,92.7711864 C129.8125,95.0644068 127.928125,96.940678 125.625,96.940678 Z M8.375,4.16949153 L125.625,4.16949153 C127.928125,4.16949153 129.8125,6.04576271 129.8125,8.33898305 L129.8125,74.4254237 L4.1875,74.4254237 L4.1875,8.33898305 C4.1875,6.04576271 6.071875,4.16949153 8.375,4.16949153 Z" id="Shape"></path>
                            <path d="M72,87 L62,87 C60.8,87 60,87.8 60,89 C60,90.2 60.8,91 62,91 L72,91 C73.2,91 74,90.2 74,89 C74,87.8 73.2,87 72,87 Z" id="Path"></path>
                            <path d="M42,87 L38,87 C36.8,87 36,87.8 36,89 C36,90.2 36.8,91 38,91 L42,91 C43.2,91 44,90.2 44,89 C44,87.8 43.2,87 42,87 Z" id="Path"></path>
                            <path d="M23,87 L19,87 C17.8,87 17,87.8 17,89 C17,90.2 17.8,91 19,91 L23,91 C24.2,91 25,90.2 25,89 C25,87.8 24.2,87 23,87 Z" id="Path"></path>
                            <path d="M16.1052632,50 L51.8947368,50 C53.1578947,50 54,49.1676301 54,47.9190751 L54,16.0809249 C54,14.8323699 53.1578947,14 51.8947368,14 L16.1052632,14 C14.8421053,14 14,14.8323699 14,16.0809249 L14,47.9190751 C14,49.1676301 14.8421053,50 16.1052632,50 Z M18.2105263,18.1618497 L49.7894737,18.1618497 L49.7894737,45.8381503 L18.2105263,45.8381503 L18.2105263,18.1618497 Z" id="Shape"></path>
                            <path d="M40,24 L32.6,24 C31.4,24 30.6,24.8 30.6,26 C30.6,27.2 31.4,28 32.6,28 L35.2,28 L26.6,36.6 C25.8,37.4 25.8,38.6 26.6,39.4 C27.4,40.2 28.6,40.2 29.4,39.4 L38,30.8 L38,33.4 C38,34.6 38.8,35.4 40,35.4 C41.2,35.4 42,34.6 42,33.4 L42,26 C42,24.8 41,24 40,24 Z" id="Path"></path>
                            <path d="M67.0689655,18 L116.931034,18 C118.172414,18 119,17.2 119,16 C119,14.8 118.172414,14 116.931034,14 L67.0689655,14 C65.8275862,14 65,14.8 65,16 C65,17 65.8275862,18 67.0689655,18 Z" id="Path"></path>
                            <path d="M67.0689655,34 L116.931034,34 C118.172414,34 119,33.2 119,32 C119,30.8 118.172414,30 116.931034,30 L67.0689655,30 C65.8275862,30 65,30.8 65,32 C65,33 65.8275862,34 67.0689655,34 Z" id="Path"></path>
                            <path d="M67.0689655,50 L116.931034,50 C118.172414,50 119,49.2 119,48 C119,46.8 118.172414,46 116.931034,46 L67.0689655,46 C65.8275862,46 65,46.8 65,48 C65,49.2 65.8275862,50 67.0689655,50 Z" id="Path"></path>
                            <path d="M16.0939335,65 L118.906067,65 C120.162427,65 121,64.2 121,63 C121,61.8 120.162427,61 118.906067,61 L16.0939335,61 C14.8375734,61 14,61.8 14,63 C14,64 14.8375734,65 16.0939335,65 Z" id="Path"></path>
                        </g>
                    </g>
                </g>
            </g>
        </g>
    </g>
</svg>