<?xml version="1.0" encoding="UTF-8"?>
<svg fill="#FFFFFF" width="100pt" height="100pt" version="1.1" viewBox="0 0 100 100" xmlns="http://www.w3.org/2000/svg">
 <path d="m15.16 8.6719c-5.0117 0-9.0977 4.1523-9.0977 9.1602v43.48h-1.8984c-1.0117 0.011719-1.832 0.85547-1.8203 1.8633 0-0.03125-0.007812 0 0.007812 0.11719l-0.007812-0.085938v5.5312c-0.019531 4.9492 3.9883 8.9922 8.9375 9.0156h53.004v7.2461c0 3.4336 2.7266 6.332 6.1836 6.332h20.988c3.457 0 6.1992-2.8984 6.1992-6.332v-42.703c0.03125-3.4258-2.7422-6.2461-6.168-6.2812h-5.3672v-18.191c-0.042969-5.0352-4.1289-9.1172-9.1602-9.1523zm0 3.793h61.793c2.9648 0.03125 5.3398 2.4102 5.3711 5.375v18.176h-11.859c-3.4258 0.023437-6.2031 2.832-6.1836 6.2578v19.035l-54.426 0.003906v-43.484c0-2.9258 2.3867-5.3633 5.3047-5.3633zm32.84 12.426c-1.0273-0.15625-2.0039 0.56641-2.1602 1.5938l-3.3125 21.898c-0.15625 1.0234 0.5625 2.0039 1.5898 2.1562 1.0273 0.15625 2.0039-0.56641 2.1562-1.5938l3.3164-21.898c0.15625-1.0234-0.5625-2.0039-1.5898-2.1562zm5.668 3.5352c-0.48047 0.0625-0.94141 0.31641-1.2617 0.72656-0.63672 0.82422-0.46875 2.0312 0.35156 2.6602l0.042969 0.03125c-0.058593-0.039062-0.058593-0.035156 0.011719 0.007812l7.6719 5.8008-7.707 5.8281c-0.82812 0.625-0.99219 1.8281-0.36719 2.6562s1.8281 0.99219 2.6562 0.36719l9.7109-7.3398c0.82812-0.625 0.99609-1.8281 0.36719-2.6602v-0.003906l-0.003906-0.003906c-0.10156-0.12891-0.22266-0.25391-0.36719-0.36328l-9.7031-7.3398c-0.41016-0.31641-0.92187-0.4375-1.4023-0.375zm-15.223 0.015625c-0.47266-0.066406-0.97656 0.050782-1.3867 0.35547l-0.003906 0.003906-9.7109 7.3438c-0.82812 0.625-1 1.8281-0.37109 2.6562v0.003907l0.003906 0.003906c0.10547 0.13672 0.22266 0.25781 0.36719 0.36719l9.7109 7.3398c0.83203 0.625 2.0352 0.44922 2.6602-0.37891v-0.003907c0.61719-0.82812 0.45312-2.0195-0.36719-2.6445l-7.7109-5.8281 7.7188-5.8359c0.82031-0.63672 0.96875-1.8398 0.33594-2.6602-0.3125-0.40234-0.76562-0.65234-1.2383-0.71875zm32.027 11.367h20.977c1.3516 0.011718 2.4219 1.1055 2.4062 2.457v2.3047h-25.781v-2.2734c0-1.3906 1.0312-2.4883 2.3945-2.4883zm-2.3945 8.5547h25.781v28.758h-25.781zm-61.941 16.738h58.148v8.8516h-52.926c-2.8672 0.023437-5.1953-2.2695-5.2227-5.1367zm61.941 15.812h10.773c-1.1641 0.74219-2.0664 1.8242-2.0664 3.3008 0 1.4922 0.92188 2.5781 2.1055 3.3203h-8.418c-1.3477 0-2.3945-1.1523-2.3945-2.543zm15 0h10.781v4.082c0 1.3867-1.0547 2.543-2.4023 2.543h-8.418c1.1836-0.74219 2.1094-1.8281 2.1094-3.3203 0-1.4766-0.90625-2.5586-2.0703-3.3008zm-2.1133 2.9141c0.22656 0 0.38672 0.16406 0.38672 0.38672-0.003906 0.21875-0.16797 0.38281-0.38672 0.38672-0.22266 0-0.38672-0.16016-0.38672-0.38672 0-0.22656 0.16016-0.38672 0.38672-0.38672z"/>
</svg>
