<?xml version="1.0" encoding="UTF-8"?>
<svg width="30px" height="29px" viewBox="0 0 30 29" version="1.1" xmlns="http://www.w3.org/2000/svg" xmlns:xlink="http://www.w3.org/1999/xlink">
    <title>Path</title>
    <g id="Symbols" stroke="none" stroke-width="1" fill="none" fill-rule="evenodd">
        <g id="cross" fill="#FFFFFF" fill-rule="nonzero">
            <path d="M0.684445512,0.661630661 C1.59703953,-0.220543554 3.07538109,-0.220543554 3.98797511,0.661630661 L15,11.3065881 L26.0120249,0.661630661 C26.9246189,-0.220543554 28.4029605,-0.220543554 29.3155545,0.661630661 C30.2281485,1.54380488 30.2281485,2.97286839 29.3155545,3.8550426 L18.3035296,14.5 L29.3155545,25.1449574 C30.2281485,26.0271316 30.2281485,27.4561951 29.3155545,28.3383693 C28.4029605,29.2205436 26.9246189,29.2205436 26.0120249,28.3383693 L15,17.6934119 L3.98797511,28.3383693 C3.07538109,29.2205436 1.59703953,29.2205436 0.684445512,28.3383693 C-0.228148504,27.4561951 -0.228148504,26.0271316 0.684445512,25.1449574 L11.6964704,14.5 L0.684445512,3.8550426 C-0.228148504,2.97286839 -0.228148504,1.54380488 0.684445512,0.661630661 Z" id="Path"></path>
        </g>
    </g>
</svg>