<?xml version="1.0" encoding="UTF-8"?>
<svg fill="#FFFFFF" width="100pt" height="100pt" version="1.1" viewBox="0 0 100 100" xmlns="http://www.w3.org/2000/svg">
 <path d="m96.898 19.602c0.39844-0.39844 0.60156-0.89844 0.60156-1.3984s-0.19922-1.1016-0.60156-1.3984l-13.598-13.703c-0.80078-0.80078-2.1016-0.80078-2.8984 0l-30.402 30.398-20.602-20.602c-1.6016-1.6016-3.8984-2-6-1.6016l-4.3984-4.4961c-1-1-2.3984-1.6016-3.8984-1.6016s-2.8008 0.60156-3.8984 1.6016l-4.3984 4.3984c-1 1-1.6016 2.3984-1.6016 3.8984s0.60156 2.8984 1.6016 3.8984l4.3984 4.3984c-0.5 2.1016 0 4.3984 1.6992 6l20.598 20.605-30.398 30.398c-0.80078 0.80078-0.80078 2.1016 0 2.8984l13.602 13.602c0.39844 0.39844 0.89844 0.60156 1.3984 0.60156s1.1016-0.19922 1.3984-0.60156l30.5-30.398 11.699 11.699c7.1992 7.1992 16.301 12.102 26.199 14.199l2.6992 0.60156h0.5c0.5 0 1.1016-0.19922 1.3984-0.60156 0.5-0.5 0.69922-1.1992 0.60156-1.8008l-0.60156-2.6992c-2.1016-10-7.1016-19-14.199-26.199l-11.797-11.699zm-49.797 16.797-3.8984 3.8984-22.203-22.195 2.3008-2.3008c0.5-0.39844 1-0.69922 1.6016-0.69922 0.60156 0 1.1992 0.19922 1.6016 0.69922zm-37.801-21.297c0-0.39844 0.10156-0.69922 0.39844-1l4.3984-4.3984c0.30078-0.30078 0.60156-0.39844 1-0.39844 0.39844 0 0.69922 0.10156 1 0.39844l3.8008 3.8008-6.3984 6.3984-3.8008-3.8008c-0.30078-0.30078-0.39844-0.70312-0.39844-1zm6.5 11.5c-0.89844-0.89844-0.89844-2.3984 0-3.3008l2.3008-2.3008 22.199 22.199-3.8984 3.8984zm2.3984 66-10.801-10.801 74.402-74.402 10.699 10.699-3.3984 3.3984-4.5-4.4961c-0.80078-0.80078-2.1016-0.80078-2.8984 0-0.80078 0.80078-0.80078 2.1016 0 2.8984l4.6016 4.6016-3.6055 3.5-4.6016-4.6016c-0.80078-0.80078-2.1016-0.80078-2.8984 0-0.80078 0.80078-0.80078 2.1016 0 2.8984l4.6016 4.6016-3.6016 3.6016-4.6016-4.6016c-0.80078-0.80078-2.1016-0.80078-2.8984 0-0.80078 0.80078-0.80078 2.1016 0 2.8984l4.6016 4.6016-3.5 3.6016-4.6016-4.6016c-0.80078-0.80078-2.1016-0.80078-2.8984 0-0.80078 0.80078-0.80078 2.1016 0 2.8984l4.6016 4.6016-3.6016 3.6016-4.6016-4.6016c-0.80078-0.80078-2.1016-0.80078-2.8984 0-0.80078 0.80078-0.80078 2.1016 0 2.8984l4.6016 4.6016-3.6016 3.6016-4.6016-4.6016c-0.80078-0.80078-2.1016-0.80078-2.8984 0-0.80078 0.80078-0.80078 2.1016 0 2.8984l4.6016 4.6016-3.6016 3.6016-4.6016-4.6016c-0.80078-0.80078-2.1016-0.80078-2.8984 0-0.80078 0.80078-0.80078 2.1016 0 2.8984l4.6016 4.6016-3.6016 3.6016-4.6016-4.6016c-0.80078-0.80078-2.1016-0.80078-2.8984 0-0.80078 0.80078-0.80078 2.1016 0 2.8984l4.6016 4.6016-3.6016 3.6016-4.6016-4.6016c-0.80078-0.80078-2.1016-0.80078-2.8984 0-0.80078 0.80078-0.80078 2.1016 0 2.8984l4.6016 4.6016-3.6016 3.6016-4.6016-4.6016c-0.80078-0.80078-2.1016-0.80078-2.8984 0-0.80078 0.80078-0.80078 2.1016 0 2.8984l4.6016 4.6016-3.6016 3.6016-4.6016-4.6016c-0.80078-0.80078-2.1016-0.80078-2.8984 0-0.80078 0.80078-0.80078 2.1016 0 2.8984l4.6016 4.6016zm34.699-29 3.8984-3.8984 16.898 16.898-3.5 3.5c-2-1.3984-3.8008-3-5.6016-4.8008zm20.703 18.797 8.6992-8.6992c2.8008 4.5 4.8984 9.5 6 14.699-5.1992-1.1992-10.199-3.2969-14.699-6zm6.5-12.297-3.5 3.5-16.902-16.801 3.8984-3.8984 11.699 11.699c1.8047 1.6992 3.3047 3.5977 4.8047 5.5z"/>
</svg>
