<?xml version="1.0" encoding="UTF-8"?>
<svg fill="#FFFFFF" width="100pt" height="100pt" version="1.1" viewBox="0 0 100 100" xmlns="http://www.w3.org/2000/svg">
 <g>
  <path d="m20.023 96.875h41.203c3.293-0.003906 5.957-2.668 5.9609-5.9609v-25.289h17.188v-3.125h-40.625v-28.125c0-0.41406-0.16406-0.8125-0.45703-1.1055s-0.69141-0.45703-1.1055-0.45703h-9.375v3.125h7.8125v28.125c0 0.41406 0.16406 0.8125 0.45703 1.1055s0.69141 0.45703 1.1055 0.45703h21.875v17.188h-46.875v-67.188h46.875v21.875h-15.625c-0.86328 0-1.5625 0.69922-1.5625 1.5625v18.75c0 0.41406 0.16406 0.8125 0.45703 1.1055s0.69141 0.45703 1.1055 0.45703h34.375c0.41406 0 0.8125-0.16406 1.1055-0.45703s0.45703-0.69141 0.45703-1.1055v-18.75c0-0.41406-0.16406-0.8125-0.45703-1.1055s-0.69141-0.45703-1.1055-0.45703h-15.625v-28.414c-0.003906-3.293-2.668-5.957-5.9609-5.9609h-41.203c-3.293 0.003906-5.957 2.668-5.9609 5.9609v81.828c0.003906 3.293 2.668 5.957 5.9609 5.9609zm61.227-56.25v15.625h-31.25v-15.625zm-64.062-31.539c0-1.5664 1.2695-2.8359 2.8359-2.8359h41.203c1.5664 0 2.8359 1.2695 2.8359 2.8359v3.4141h-46.875zm0 76.852h46.875v4.9766c0 1.5664-1.2695 2.8359-2.8359 2.8359h-41.203c-1.5664 0-2.8359-1.2695-2.8359-2.8359z"/>
  <path d="m56.25 73.438c0-1.8945-1.1406-3.6055-2.8945-4.332-1.75-0.72266-3.7656-0.32422-5.1094 1.0156-1.3398 1.3438-1.7383 3.3594-1.0156 5.1094 0.72656 1.7539 2.4375 2.8945 4.332 2.8945 2.5898 0 4.6875-2.0977 4.6875-4.6875zm-6.25 0c0-0.63281 0.37891-1.2031 0.96484-1.4453 0.58203-0.23828 1.2539-0.10547 1.7031 0.33984 0.44531 0.44922 0.57812 1.1211 0.33984 1.7031-0.24219 0.58594-0.8125 0.96484-1.4453 0.96484-0.86328 0-1.5625-0.69922-1.5625-1.5625z"/>
  <path d="m71.875 73.438c0 1.8945 1.1406 3.6055 2.8945 4.332 1.75 0.72266 3.7656 0.32422 5.1094-1.0156 1.3398-1.3438 1.7383-3.3594 1.0156-5.1094-0.72656-1.7539-2.4375-2.8945-4.332-2.8945-2.5898 0-4.6875 2.0977-4.6875 4.6875zm6.25 0c0 0.63281-0.37891 1.2031-0.96484 1.4453-0.58203 0.23828-1.2539 0.10547-1.7031-0.33984-0.44531-0.44922-0.57812-1.1211-0.33984-1.7031 0.24219-0.58594 0.8125-0.96484 1.4453-0.96484 0.41406 0 0.8125 0.16406 1.1055 0.45703s0.45703 0.69141 0.45703 1.1055z"/>
 </g>
</svg>
