<?xml version="1.0" encoding="UTF-8"?>
<svg fill="#FFFFFF" width="100pt" height="100pt" version="1.1" viewBox="0 0 100 100" xmlns="http://www.w3.org/2000/svg">
 <g>
  <path d="m92.188 87.5c-2.0352 0-3.7539 1.3125-4.3984 3.125h-13.609l-6.4648-7.9023c10.035-6.7383 16.66-18.188 16.66-31.16 0-0.86328-0.69922-1.5625-1.5625-1.5625h-34.375v-34.375c0-0.86328-0.69922-1.5625-1.5625-1.5625-10.176 0-19.41 4.0781-26.172 10.68l-8.6719-8.6719c0.29297-0.60937 0.46875-1.2852 0.46875-2.0078 0-2.5859-2.1016-4.6875-4.6875-4.6875s-4.6875 2.1016-4.6875 4.6875 2.1016 4.6875 4.6875 4.6875c0.72266 0 1.3984-0.17578 2.0078-0.46875l8.7383 8.7383c-5.7148 6.582-9.1836 15.16-9.1836 24.543 0 10.414 4.1758 20.094 11.762 27.258 6.9922 6.6055 16.133 10.242 25.738 10.242 6.5781 0 12.762-1.707 18.145-4.6953l7.2109 8.8125c0.29297 0.35937 0.73828 0.57031 1.207 0.57031h14.352c0.64844 1.8125 2.3672 3.125 4.3984 3.125 2.5859 0 4.6875-2.1016 4.6875-4.6875s-2.1016-4.6875-4.6875-4.6875zm-85.938-73.438c0-0.85938 0.69922-1.5625 1.5625-1.5625s1.5625 0.70312 1.5625 1.5625-0.69922 1.5625-1.5625 1.5625-1.5625-0.70312-1.5625-1.5625zm6.25 37.5c0-8.5195 3.1406-16.301 8.293-22.312l3.1016 3.1016c0.29297 0.29688 0.69141 0.46094 1.1055 0.46094h12.5v-3.125h-11.852l-2.7188-2.7188c5.8477-5.6953 13.688-9.3555 22.383-9.75v33.805l-23.141 24.43c-6.25-6.4414-9.6719-14.867-9.6719-23.891zm34.375 34.375c-8.2812 0-16.188-2.9492-22.43-8.3398l14.996-15.832 8.1875-8.6406h33.586c-0.51172 11.352-6.5547 21.281-15.492 27.164l-5.1367-6.2812-2.4219 1.9805 4.8398 5.9141c-4.8125 2.5703-10.301 4.0352-16.129 4.0352zm45.312 7.8125c-0.86328 0-1.5625-0.70312-1.5625-1.5625s0.69922-1.5625 1.5625-1.5625 1.5625 0.70312 1.5625 1.5625-0.69922 1.5625-1.5625 1.5625z"/>
  <path d="m53.125 46.875h35.938c0.86328 0 1.5625-0.69922 1.5625-1.5625 0-11.965-5.6406-22.629-14.391-29.5l4.2891-6.4375h7.2656c0.64453 1.8125 2.3633 3.125 4.3984 3.125 2.5859 0 4.6875-2.1016 4.6875-4.6875s-2.1016-4.6875-4.6875-4.6875c-2.0352 0-3.7539 1.3125-4.3984 3.125h-8.1016c-0.52344 0-1.0078 0.26172-1.3008 0.69531l-4.6914 7.0352c-5.9102-3.8945-12.977-6.168-20.57-6.168-0.86328 0-1.5625 0.69922-1.5625 1.5625v35.938c0 0.86328 0.69922 1.5625 1.5625 1.5625zm39.062-40.625c0.86328 0 1.5625 0.70312 1.5625 1.5625s-0.69922 1.5625-1.5625 1.5625-1.5625-0.70312-1.5625-1.5625 0.69922-1.5625 1.5625-1.5625zm-37.5 4.7227c6.3594 0.28516 12.258 2.332 17.266 5.625l-2.9414 4.4102 2.6016 1.7344 2.8711-4.3086c7.5352 6 12.52 15.07 12.98 25.316h-32.777z"/>
 </g>
</svg>
