<?xml version="1.0" encoding="UTF-8"?>
<svg fill="#FFFFFF" width="100pt" height="100pt" version="1.1" viewBox="0 0 100 100" xmlns="http://www.w3.org/2000/svg">
 <g>
  <path d="m93.641 94.531h-87.281c-2.6445 0-4.7969-2.1836-4.7969-4.8672v-13.223c0-2.6836 2.1523-4.8672 4.7969-4.8672h87.285c2.6445 0 4.7969 2.1836 4.7969 4.8672v13.223c-0.003906 2.6836-2.1562 4.8672-4.8008 4.8672zm-87.281-19.832c-0.92188 0-1.6719 0.78125-1.6719 1.7422v13.223c0 0.96094 0.75 1.7422 1.6719 1.7422h87.285c0.92188 0 1.6719-0.78125 1.6719-1.7422l-0.003906-13.223c0-0.96094-0.75-1.7422-1.6719-1.7422z"/>
  <path d="m53.234 87.805h-38.797c-0.86328 0-1.5625-0.69922-1.5625-1.5625 0-0.86328 0.69922-1.5625 1.5625-1.5625h38.793c0.86328 0 1.5625 0.69922 1.5625 1.5625 0 0.86328-0.69922 1.5625-1.5586 1.5625z"/>
  <path d="m53.234 81.309h-38.797c-0.86328 0-1.5625-0.69922-1.5625-1.5625 0-0.86328 0.69922-1.5625 1.5625-1.5625h38.793c0.86328 0 1.5625 0.69922 1.5625 1.5625 0 0.86328-0.69922 1.5625-1.5586 1.5625z"/>
  <path d="m30.605 74.699h-16.164c-0.86328 0-1.5625-0.69922-1.5625-1.5625v-5.8867c0-1.7734 1.4258-3.2148 3.1797-3.2148h12.93c1.7539 0 3.1797 1.4414 3.1797 3.2148v5.8867c0 0.86328-0.70312 1.5625-1.5625 1.5625zm-14.605-3.125h13.039v-4.3242c0-0.0625-0.039062-0.089844-0.054687-0.089844h-12.93c-0.015626 0-0.054688 0.027344-0.054688 0.089844l0.003906 4.3242z"/>
  <path d="m53.234 74.699h-16.164c-0.86328 0-1.5625-0.69922-1.5625-1.5625v-5.8867c0-1.7734 1.4258-3.2148 3.1797-3.2148h12.93c1.7539 0 3.1797 1.4414 3.1797 3.2148v5.8867c0 0.86328-0.70312 1.5625-1.5625 1.5625zm-14.602-3.125h13.039v-4.3242c0-0.0625-0.039063-0.089844-0.054687-0.089844h-12.93c-0.015625 0-0.054688 0.027344-0.054688 0.089844z"/>
  <path d="m80.656 74.699h-12.824v-35.371h3.125v32.246h6.5742v-32.246h3.125z"/>
  <path d="m74.246 41.652c-1.793 0-3.582-0.27734-5.3242-0.83594-9.3164-2.9961-14.512-13.164-11.59-22.672 1.4375-4.668 4.5781-8.4648 8.8477-10.691 4.168-2.1758 8.9258-2.582 13.395-1.1445 9.3125 2.9961 14.508 13.164 11.586 22.668-1.7344 5.6367-6.0664 10.059-11.586 11.836-1.7461 0.5625-3.5352 0.83984-5.3281 0.83984zm-0.015625-33.059c-2.2734 0-4.5273 0.55078-6.6055 1.6328-3.5234 1.8359-6.1172 4.9766-7.3047 8.8398-2.4258 7.8789 1.8633 16.305 9.5547 18.777 2.8594 0.91406 5.8828 0.91406 8.7422 0 4.5508-1.4648 8.1211-5.1172 9.5547-9.7812 2.4219-7.8789-1.8633-16.301-9.5547-18.777-1.4414-0.46484-2.918-0.69141-4.3867-0.69141z"/>
  <path d="m83.113 27.973c-0.15234 0-0.30859-0.023437-0.46094-0.070312-0.82422-0.25391-1.2891-1.1289-1.0352-1.9531 1.2852-4.1836-0.98438-8.6562-5.0625-9.9688-0.82031-0.26562-1.2734-1.1445-1.0078-1.9648s1.1406-1.2734 1.9648-1.0078c5.6992 1.832 8.8789 8.0508 7.0938 13.863-0.20703 0.67188-0.82422 1.1016-1.4922 1.1016z"/>
 </g>
</svg>
