<svg height="49" viewBox="0 0 399 49" width="399" xmlns="http://www.w3.org/2000/svg" xmlns:xlink="http://www.w3.org/1999/xlink"><filter id="a" height="412.5%" width="120.8%" x="-10.4%" y="-156.2%"><feGaussianBlur in="SourceGraphic" stdDeviation="50"/></filter><g fill="none" fill-rule="evenodd" transform="translate(-175 -28)"><path d="m0 0h1440v96h-1440z" filter="url(#a)"/><g fill="#fff"><path d="m21.0219063 21.2782987 13.6039628-16.22858794h-15.4544582l-9.8960414 11.78374354 9.0009917 10.7528541-8.58217975 10.1913699 4.19505025 1.1932654-8.36930842.732177-.7326734-8.3692935 1.90297064 3.9236571 6.43762488-7.6711759-9.00594217-10.7528541 9.87722947-11.78374354h-13.80099255v-4.95048713h39.60396745v4.95048713l-13.6326757 16.22858794 11.7297051 13.9791856 1.9029706-3.9236571-.7316833 8.3692935-8.3693084-.732177 4.1940602-1.1932654z" transform="translate(175 28)"/><path d="m245.304 66.576c3.744 0 6.632-.88 8.664-2.64s3.048-4.192 3.048-7.296c0-1.088-.144-2.128-.432-3.12s-.776-1.888-1.464-2.688-1.592-1.488-2.712-2.064-2.496-1.008-4.128-1.296l-3.6-.624c-2.368-.416-4.008-1.096-4.92-2.04s-1.368-2.168-1.368-3.672c0-1.92.608-3.36 1.824-4.32s2.96-1.44 5.232-1.44c2.08 0 3.776.384 5.088 1.152s2.432 1.76 3.36 2.976l2.832-2.448c-1.12-1.632-2.6-2.896-4.44-3.792s-4.104-1.344-6.792-1.344c-3.424 0-6.144.784-8.16 2.352s-3.024 3.888-3.024 6.96c0 1.056.144 2.072.432 3.048s.768 1.872 1.44 2.688 1.56 1.512 2.664 2.088 2.472 1.008 4.104 1.296l3.744.624c2.304.384 3.92 1.032 4.848 1.944s1.392 2.184 1.392 3.816c0 2.016-.64 3.584-1.92 4.704s-3.136 1.68-5.568 1.68c-2.016 0-3.752-.4-5.208-1.2s-2.84-2.016-4.152-3.648l-2.928 2.4c1.248 1.728 2.832 3.144 4.752 4.248s4.384 1.656 7.392 1.656zm39.744-.576v-3.264h-11.28v-18.24h11.28v-3.264h-11.28v-8.736h-3.696v6.48c0 .832-.168 1.416-.504 1.752s-.92.504-1.752.504h-6.144v3.264h8.256v15.84c0 1.664.44 3.024 1.32 4.08s2.264 1.584 4.152 1.584zm15.216.576c2.016 0 3.624-.408 4.824-1.224s2.072-1.944 2.616-3.384h.24c.16 1.152.56 2.112 1.2 2.88s1.712 1.152 3.216 1.152h2.64v-3.36h-3.456v-13.632c0-2.624-.856-4.672-2.568-6.144s-4.024-2.208-6.936-2.208c-1.248 0-2.384.136-3.408.408s-1.936.64-2.736 1.104-1.472 1-2.016 1.608-.976 1.232-1.296 1.872l2.592 1.92c.64-1.12 1.488-2.008 2.544-2.664s2.416-.984 4.08-.984c1.888 0 3.344.456 4.368 1.368s1.536 2.28 1.536 4.104v2.448h-5.28c-3.744 0-6.456.624-8.136 1.872s-2.52 3.024-2.52 5.328c0 2.336.768 4.176 2.304 5.52s3.6 2.016 6.192 2.016zm.672-3.216c-1.6 0-2.856-.328-3.768-.984s-1.368-1.624-1.368-2.904v-1.008c0-1.216.528-2.144 1.584-2.784s2.736-.96 5.04-.96h5.28v4.08c0 .64-.168 1.24-.504 1.8s-.808 1.04-1.416 1.44-1.32.72-2.136.96-1.72.36-2.712.36zm41.712 2.64v-3.264h-11.28v-18.24h11.28v-3.264h-11.28v-8.736h-3.696v6.48c0 .832-.168 1.416-.504 1.752s-.92.504-1.752.504h-6.144v3.264h8.256v15.84c0 1.664.44 3.024 1.32 4.08s2.264 1.584 4.152 1.584zm19.488-30.24c1.12 0 1.904-.232 2.352-.696s.672-1.048.672-1.752v-.768c0-.704-.224-1.288-.672-1.752s-1.232-.696-2.352-.696-1.904.232-2.352.696-.672 1.048-.672 1.752v.768c0 .704.224 1.288.672 1.752s1.232.696 2.352.696zm10.272 30.24v-3.264h-8.352v-21.504h-12.768v3.264h8.928v18.24h-8.928v3.264zm17.856.576c2.496 0 4.52-.544 6.072-1.632s2.696-2.464 3.432-4.128l-2.736-1.872c-.64 1.344-1.504 2.4-2.592 3.168s-2.464 1.152-4.128 1.152c-1.152 0-2.176-.184-3.072-.552s-1.648-.888-2.256-1.56-1.064-1.472-1.368-2.4-.456-1.936-.456-3.024v-4.224c0-1.088.152-2.096.456-3.024s.76-1.728 1.368-2.4 1.352-1.192 2.232-1.56 1.88-.552 3-.552c1.536 0 2.824.352 3.864 1.056s1.784 1.696 2.232 2.976l3.072-1.632c-.704-1.696-1.808-3.072-3.312-4.128s-3.456-1.584-5.856-1.584c-1.76 0-3.328.304-4.704.912s-2.544 1.48-3.504 2.616-1.696 2.504-2.208 4.104-.768 3.376-.768 5.328.248 3.728.744 5.328 1.224 2.96 2.184 4.08 2.136 1.992 3.528 2.616 2.984.936 4.776.936zm29.04 0c1.536 0 2.864-.208 3.984-.624s2.08-.976 2.88-1.68 1.472-1.488 2.016-2.352 1.024-1.76 1.44-2.688l-3.456-1.584c-.288.736-.624 1.432-1.008 2.088s-.84 1.232-1.368 1.728-1.152.888-1.872 1.176-1.592.432-2.616.432c-2.656 0-4.632-1.008-5.928-3.024s-1.944-4.704-1.944-8.064v-5.472c0-3.36.648-6.048 1.944-8.064s3.272-3.024 5.928-3.024c1.024 0 1.896.144 2.616.432s1.344.68 1.872 1.176.984 1.072 1.368 1.728.72 1.352 1.008 2.088l3.456-1.584c-.416-.896-.896-1.784-1.44-2.664s-1.216-1.672-2.016-2.376-1.76-1.264-2.88-1.68-2.448-.624-3.984-.624c-4.096 0-7.144 1.488-9.144 4.464s-3 7.264-3 12.864 1 9.888 3 12.864 5.048 4.464 9.144 4.464zm21.84-.576v-17.184c0-.8.176-1.504.528-2.112s.816-1.104 1.392-1.488 1.232-.672 1.968-.864 1.488-.288 2.256-.288c1.92 0 3.376.552 4.368 1.656s1.488 2.792 1.488 5.064v15.216h3.84v-15.888c0-3.008-.784-5.336-2.352-6.984s-3.648-2.472-6.24-2.472c-1.024 0-1.92.128-2.688.384s-1.432.592-1.992 1.008-1.032.904-1.416 1.464-.704 1.144-.96 1.752h-.192v-14.784h-3.84v35.52zm31.92.576c2.016 0 3.624-.408 4.824-1.224s2.072-1.944 2.616-3.384h.24c.16 1.152.56 2.112 1.2 2.88s1.712 1.152 3.216 1.152h2.64v-3.36h-3.456v-13.632c0-2.624-.856-4.672-2.568-6.144s-4.024-2.208-6.936-2.208c-1.248 0-2.384.136-3.408.408s-1.936.64-2.736 1.104-1.472 1-2.016 1.608-.976 1.232-1.296 1.872l2.592 1.92c.64-1.12 1.488-2.008 2.544-2.664s2.416-.984 4.08-.984c1.888 0 3.344.456 4.368 1.368s1.536 2.28 1.536 4.104v2.448h-5.28c-3.744 0-6.456.624-8.136 1.872s-2.52 3.024-2.52 5.328c0 2.336.768 4.176 2.304 5.52s3.6 2.016 6.192 2.016zm.672-3.216c-1.6 0-2.856-.328-3.768-.984s-1.368-1.624-1.368-2.904v-1.008c0-1.216.528-2.144 1.584-2.784s2.736-.96 5.04-.96h5.28v4.08c0 .64-.168 1.24-.504 1.8s-.808 1.04-1.416 1.44-1.32.72-2.136.96-1.72.36-2.712.36zm40.848 2.64v-3.264h-9.6v-10.704c0-2.08.68-3.76 2.04-5.04s3.144-1.92 5.352-1.92h4.656v-3.84h-3.456c-2.208 0-4.024.552-5.448 1.656s-2.392 2.632-2.904 4.584h-.24v-6.24h-11.088v3.264h7.248v18.24h-7.248v3.264zm18.864 10.176c4.16 0 7.28-.6 9.36-1.8s3.12-3.048 3.12-5.544c0-2.016-.72-3.624-2.16-4.824s-3.76-1.8-6.96-1.8h-5.472c-1.184 0-2.144-.12-2.88-.36s-1.104-.728-1.104-1.464c0-.416.112-.784.336-1.104s.512-.6.864-.84.736-.432 1.152-.576.816-.248 1.2-.312c.384.064.768.112 1.152.144s.784.048 1.2.048c1.44 0 2.76-.208 3.96-.624s2.216-1 3.048-1.752 1.48-1.656 1.944-2.712.696-2.208.696-3.456c0-1.312-.24-2.496-.72-3.552s-1.168-1.968-2.064-2.736v-1.68h5.568v-3.36h-4.56c-1.088 0-1.856.32-2.304.96s-.672 1.44-.672 2.4v.432c-1.408-.672-3.04-1.008-4.896-1.008-1.44 0-2.752.208-3.936.624s-2.2 1-3.048 1.752-1.496 1.656-1.944 2.712-.672 2.208-.672 3.456c0 1.76.424 3.296 1.272 4.608s2.04 2.304 3.576 2.976v.192c-1.28.32-2.344.8-3.192 1.44s-1.272 1.6-1.272 2.88c0 .832.192 1.52.576 2.064s.928.992 1.632 1.344v.576c-1.28.352-2.272.896-2.976 1.632s-1.056 1.776-1.056 3.12c0 1.984.872 3.504 2.616 4.56s4.616 1.584 8.616 1.584zm-.192-21.408c-1.92 0-3.328-.448-4.224-1.344s-1.344-2.08-1.344-3.552v-1.392c0-1.472.448-2.648 1.344-3.528s2.304-1.32 4.224-1.32 3.336.44 4.248 1.32 1.368 2.056 1.368 3.528v1.392c0 1.472-.456 2.656-1.368 3.552s-2.328 1.344-4.248 1.344zm1.968 18.336h-3.744c-2.016 0-3.456-.392-4.32-1.176s-1.296-1.72-1.296-2.808c0-1.568.832-2.688 2.496-3.36h8.592c1.984 0 3.376.296 4.176.888s1.2 1.384 1.2 2.376c0 1.344-.624 2.36-1.872 3.048s-2.992 1.032-5.232 1.032zm27.408-6.528c2.464 0 4.552-.536 6.264-1.608s2.936-2.44 3.672-4.104l-2.832-1.92c-.64 1.344-1.568 2.4-2.784 3.168s-2.656 1.152-4.32 1.152c-1.152 0-2.2-.184-3.144-.552s-1.744-.888-2.4-1.56-1.16-1.472-1.512-2.4-.528-1.936-.528-3.024v-1.152h18.336v-1.824c0-1.76-.256-3.376-.768-4.848s-1.248-2.744-2.208-3.816-2.12-1.912-3.48-2.52-2.872-.912-4.536-.912c-1.696 0-3.24.304-4.632.912s-2.584 1.48-3.576 2.616-1.768 2.504-2.328 4.104-.84 3.392-.84 5.376c0 1.952.272 3.72.816 5.304s1.32 2.944 2.328 4.08 2.224 2.008 3.648 2.616 3.032.912 4.824.912zm6.624-14.88h-14.208v-.336c0-1.088.184-2.088.552-3s.88-1.704 1.536-2.376 1.432-1.2 2.328-1.584 1.872-.576 2.928-.576c1.024 0 1.96.176 2.808.528s1.568.856 2.16 1.512 1.056 1.432 1.392 2.328.504 1.888.504 2.976z" fill-rule="nonzero"/></g></g></svg>