<?xml version="1.0" encoding="UTF-8"?>
<svg width="140px" height="54px" viewBox="0 0 140 54" version="1.1" xmlns="http://www.w3.org/2000/svg" xmlns:xlink="http://www.w3.org/1999/xlink">
    <title>Group 4</title>
    <g id="Symbols" stroke="none" stroke-width="1" fill="none" fill-rule="evenodd">
        <g id="Group-4">
            <rect id="Rectangle" fill="#25D366" x="0" y="0" width="140" height="54" rx="8"></rect>
            <g id="whatsapp" transform="translate(49.000000, 7.000000)" fill="#FFFFFF" fill-rule="nonzero">
                <path d="M34.0089286,5.8125 C30.2678571,2.0625 25.2857143,0 19.9910714,0 C9.0625,0 0.169642857,8.89285714 0.169642857,19.8214286 C0.169642857,23.3125 1.08035714,26.7232143 2.8125,29.7321429 L0,40 L10.5089286,37.2410714 C13.4017857,38.8214286 16.6607143,39.6517857 19.9821429,39.6517857 L19.9910714,39.6517857 C30.9107143,39.6517857 40,30.7589286 40,19.8303571 C40,14.5357143 37.75,9.5625 34.0089286,5.8125 Z M19.9910714,36.3125 C17.0267857,36.3125 14.125,35.5178571 11.5982143,34.0178571 L11,33.6607143 L4.76785714,35.2946429 L6.42857143,29.2142857 L6.03571429,28.5892857 C4.38392857,25.9642857 3.51785714,22.9375 3.51785714,19.8214286 C3.51785714,10.7410714 10.9107143,3.34821429 20,3.34821429 C24.4017857,3.34821429 28.5357143,5.0625 31.6428571,8.17857143 C34.75,11.2946429 36.6607143,15.4285714 36.6518169,19.8303571 C36.6518169,28.9196429 29.0714286,36.3125 19.9910714,36.3125 Z M29.0267857,23.9732143 C28.5357143,23.7232143 26.0982143,22.5267857 25.6428571,22.3660714 C25.1875,22.1964286 24.8571429,22.1160714 24.5267857,22.6160714 C24.1964286,23.1160714 23.25,24.2232143 22.9553571,24.5625 C22.6696429,24.8928571 22.375,24.9375 21.8839286,24.6875 C18.9732143,23.2321429 17.0625,22.0892857 15.1428571,18.7946429 C14.6339286,17.9196429 15.6517857,17.9821429 16.5982143,16.0892857 C16.7589286,15.7589286 16.6785714,15.4732143 16.5535714,15.2232143 C16.4285714,14.9732143 15.4375,12.5357143 15.0267857,11.5446429 C14.625,10.5803571 14.2142857,10.7142857 13.9107143,10.6964286 C13.625,10.6785714 13.2946429,10.6785714 12.9642857,10.6785714 C12.6339286,10.6785714 12.0982143,10.8035714 11.6428571,11.2946429 C11.1875,11.7946429 9.91071429,12.9910714 9.91071429,15.4285714 C9.91071429,17.8660714 11.6875,20.2232143 11.9285714,20.5535714 C12.1785714,20.8839286 15.4196429,25.8839286 20.3928571,28.0357143 C23.5357143,29.3928571 24.7678571,29.5089286 26.3392857,29.2767857 C27.2946429,29.1339286 29.2678571,28.0803571 29.6785714,26.9196429 C30.0892857,25.7589286 30.0892857,24.7678571 29.9642857,24.5625 C29.8482143,24.3392857 29.5178571,24.2142857 29.0267857,23.9732143 Z" id="Shape"></path>
            </g>
        </g>
    </g>
</svg>