<?xml version="1.0" encoding="UTF-8"?>
<svg width="295px" height="58px" viewBox="0 0 295 58" version="1.1" xmlns="http://www.w3.org/2000/svg" xmlns:xlink="http://www.w3.org/1999/xlink">
    <title>Clipped</title>
    <defs>
        <rect id="path-1" x="0.290793858" y="0.0173481799" width="293.877324" height="57.4596296"></rect>
    </defs>
    <g id="Page-1" stroke="none" stroke-width="1" fill="none" fill-rule="evenodd">
        <g id="Front-page" transform="translate(-357.000000, -1375.000000)">
            <rect id="Rectangle" stroke="#979797" stroke-width="2" fill="#232425" x="1" y="1" width="1440" height="4580"></rect>
            <g id="referenssit" transform="translate(351.000000, 1099.000000)">
                <g id="Castor-web" transform="translate(6.000000, 276.000000)">
                    <rect id="Rectangle" x="0" y="0" width="294" height="57"></rect>
                    <g id="Clipped">
                        <mask id="mask-2" fill="white">
                            <use xlink:href="#path-1"></use>
                        </mask>
                        <g id="Rectangle"></g>
                        <g id="Group" mask="url(#mask-2)">
                            <g transform="translate(-1.780464, -8.199373)">
                                <g transform="translate(0.444200, 8.256832)">
                                    <g transform="translate(25.454383, 13.158741)" id="Path" stroke="#FFFFFF" stroke-dasharray="0.3716634002165929,0.3716634002165929,0,0" stroke-width="0.5">
                                        <path d="M0.176822338,0.0907628729 L4.79048202,18.8302957 L10.9732762,30.7252953 L14.8515795,33.2072098 L20.8498797,34.9363925"></path>
                                    </g>
                                    <g transform="translate(30.132223, 31.911401)" id="Path" stroke="#FFFFFF" stroke-dasharray="0.3716634002165929,0.3716634002165929,0,0" stroke-width="0.5">
                                        <line x1="0.447859912" y1="14.8554819" x2="0.124097536" y2="0.0776360111"></line>
                                    </g>
                                    <g transform="translate(9.573994, 26.417426) rotate(35.371952) translate(-9.573994, -26.417426) translate(8.573994, 25.417426)" fill="#FFFFFF" id="Oval">
                                        <ellipse cx="0.8438126" cy="0.842662855" rx="1" ry="1"></ellipse>
                                    </g>
                                    <g transform="translate(2.624595, 13.286814) rotate(35.371952) translate(-2.624595, -13.286814) translate(1.624595, 12.286814)" fill="#FFFFFF" id="Oval">
                                        <ellipse cx="0.8438126" cy="0.842662855" rx="1" ry="1"></ellipse>
                                    </g>
                                    <g transform="translate(10.066103, 11.653457) rotate(35.371952) translate(-10.066103, -11.653457) translate(9.066103, 10.653457)" fill="#FFFFFF" id="Oval">
                                        <ellipse cx="0.8438126" cy="0.842662855" rx="1" ry="1"></ellipse>
                                    </g>
                                    <g transform="translate(8.029540, 6.432890) rotate(35.371979) translate(-8.029540, -6.432890) translate(6.029540, 4.432890)" fill="#FFFFFF" id="Oval">
                                        <ellipse cx="1.62607128" cy="1.62479578" rx="1.51011134" ry="1.51343531"></ellipse>
                                    </g>
                                    <g transform="translate(18.462994, 2.792999) rotate(35.371979) translate(-18.462994, -2.792999) translate(16.462994, 0.792999)" fill="#FFFFFF" id="Oval">
                                        <ellipse cx="1.62607128" cy="1.62479578" rx="1.51011134" ry="1.51343531"></ellipse>
                                    </g>
                                    <g transform="translate(15.765582, 13.389953) rotate(35.371952) translate(-15.765582, -13.389953) translate(14.765582, 12.389953)" fill="#FFFFFF" id="Oval">
                                        <ellipse cx="0.8438126" cy="0.842662855" rx="1" ry="1"></ellipse>
                                    </g>
                                    <g transform="translate(38.816105, 11.846610) rotate(35.371952) translate(-38.816105, -11.846610) translate(37.816105, 10.846610)" fill="#FFFFFF" id="Oval">
                                        <ellipse cx="0.8438126" cy="0.842662855" rx="1" ry="1"></ellipse>
                                    </g>
                                    <g transform="translate(25.704190, 13.665829) rotate(35.371990) translate(-25.704190, -13.665829) translate(24.704190, 12.665829)" fill="#FFFFFF" id="Oval">
                                        <ellipse cx="0.702341152" cy="0.703544003" rx="1" ry="1"></ellipse>
                                    </g>
                                    <g transform="translate(14.649520, 34.846958) rotate(35.371990) translate(-14.649520, -34.846958) translate(13.649520, 33.846958)" fill="#FFFFFF" id="Oval">
                                        <ellipse cx="0.702341152" cy="0.703544003" rx="1" ry="1"></ellipse>
                                    </g>
                                    <g transform="translate(2.350544, 37.854884) rotate(35.371990) translate(-2.350544, -37.854884) translate(1.350544, 36.854884)" fill="#FFFFFF" id="Oval">
                                        <ellipse cx="0.702341152" cy="0.703544003" rx="1" ry="1"></ellipse>
                                    </g>
                                    <g transform="translate(12.602829, 56.280996) rotate(35.371952) translate(-12.602829, -56.280996) translate(11.602829, 55.280996)" fill="#FFFFFF" id="Oval">
                                        <ellipse cx="0.887034933" cy="0.885166716" rx="1" ry="1"></ellipse>
                                    </g>
                                    <g transform="translate(13.844743, 56.476854) rotate(35.372031) translate(-13.844743, -56.476854) translate(12.844743, 55.476854)" fill="#FFFFFF" id="Oval">
                                        <ellipse cx="0.636700627" cy="0.638996192" rx="1" ry="1"></ellipse>
                                    </g>
                                    <g transform="translate(30.281854, 32.210123) rotate(35.371952) translate(-30.281854, -32.210123) translate(29.281854, 31.210123)" fill="#FFFFFF" id="Oval">
                                        <ellipse cx="0.8438126" cy="0.842662855" rx="1" ry="1"></ellipse>
                                    </g>
                                    <g transform="translate(36.437142, 43.954039) rotate(35.371935) translate(-36.437142, -43.954039) translate(35.437142, 42.954039)" fill="#FFFFFF" id="Oval">
                                        <ellipse cx="0.95267964" cy="0.949722867" rx="1" ry="1"></ellipse>
                                    </g>
                                    <g transform="translate(46.354030, 48.389189) rotate(35.371999) translate(-46.354030, -48.389189) translate(45.354030, 47.389189)" fill="#FFFFFF" id="Oval">
                                        <ellipse cx="0.790671797" cy="0.790405861" rx="1" ry="1"></ellipse>
                                    </g>
                                    <g transform="translate(40.336306, 46.544725) rotate(35.371902) translate(-40.336306, -46.544725) translate(39.336306, 45.544725)" fill="#FFFFFF" id="Oval">
                                        <ellipse cx="0.873670894" cy="0.872026432" rx="1" ry="1"></ellipse>
                                    </g>
                                    <g transform="translate(30.591184, 47.166825) rotate(35.371947) translate(-30.591184, -47.166825) translate(29.591184, 46.166825)" fill="#FFFFFF" id="Oval">
                                        <ellipse cx="0.713330808" cy="0.714350785" rx="1" ry="1"></ellipse>
                                    </g>
                                    <g transform="translate(21.148246, 51.880864) rotate(35.371909) translate(-21.148246, -51.880864) translate(19.648246, 50.380864)" fill="#FFFFFF" id="Oval">
                                        <ellipse cx="1.32259145" cy="1.31992208" rx="1.22753766" ry="1.23024042"></ellipse>
                                    </g>
                                    <g transform="translate(18.352709, 2.139890)" id="Path" stroke="#FFFFFF" stroke-dasharray="0.3720668225641257,0.3720668225641257,0,0" stroke-width="0.5">
                                        <line x1="0.0210694465" y1="0.128385636" x2="7.27888986" y2="11.1106604"></line>
                                    </g>
                                    <g transform="translate(9.362615, 11.283475)" id="Path" stroke="#FFFFFF" stroke-dasharray="0.3716634002165929,0.3716634002165929,0,0" stroke-width="0.5">
                                        <path d="M29.416501,0.342798619 L16.2685907,1.96602884 L6.36579129,1.88689262 L0.666311478,0.149271171 L0.174764089,14.9136152 L5.21410717,23.1486582 L11.7451198,40.3478475"></path>
                                    </g>
                                    <g transform="translate(2.439412, 5.845204)" id="Path" stroke="#FFFFFF" stroke-dasharray="0.3716634002165929,0.3716634002165929,0,0" stroke-width="0.5">
                                        <path d="M5.49982962,0.0620713036 L7.56631206,5.58754248 L0.148381073,7.22108666"></path>
                                    </g>
                                    <g transform="translate(2.252299, 26.098076)" id="Path" stroke="#FFFFFF" stroke-dasharray="0.3716634002165929,0.3716634002165929,0,0" stroke-width="0.5">
                                        <path d="M10.323805,30.0230082 L0.0254474476,11.3417961 L7.28508034,0.0789486973"></path>
                                    </g>
                                </g>
                                <g transform="translate(46.543568, 0.023150)">
                                    <g transform="translate(0.093725, 0.094973)" fill="#FFFFFF" fill-rule="nonzero" id="Path">
                                        <path d="M14.7597158,33.0698491 C14.7597158,35.5140055 15.3694101,37.791515 16.6442256,39.8468284 C17.8636144,41.9021418 19.5264172,43.5686121 21.6326342,44.7906904 C23.6834243,46.0127686 25.9559215,46.6238077 28.394699,46.6238077 C30.8889033,46.6238077 33.1614005,46.1238666 35.2121907,45.1239844 C37.2629809,44.1241022 38.8703569,42.735377 40.0343189,40.9578086 C41.1982809,39.1802403 41.7525485,37.1804759 41.8079753,34.9585154 L43.8033387,34.9585154 C43.8033387,37.5137699 43.1382175,39.8468284 41.8079753,41.9021418 C40.4223062,44.0130042 38.5932231,45.6794746 36.2652991,46.8460038 C33.8819484,48.068082 31.2768906,48.6791211 28.394699,48.6791211 C25.5679342,48.6791211 22.9628764,47.956984 20.5795257,46.5682587 C18.196175,45.1795335 16.2562383,43.2353181 14.8705693,40.8467106 C13.4849003,38.4581031 12.7643524,35.9028486 12.7643524,33.0698491 L12.7643524,23.9598113 C12.7643524,21.1268117 13.4849003,18.5160082 14.8705693,16.1274007 C16.2562383,13.7387932 18.1407482,11.8501269 20.5240989,10.4614016 C22.9074497,9.07267632 25.4570807,8.35053917 28.2838455,8.35053917 C31.1106103,8.35053917 33.7156681,8.96157829 36.0990189,10.1281075 C38.4269428,11.3501858 40.256026,13.0166561 41.641695,15.0719695 C43.027364,17.1828319 43.6924852,19.5158904 43.6924852,22.0711449 L41.6971218,22.0711449 C41.641695,19.8491844 41.0320006,17.8494201 39.8680386,16.0718517 C38.7040766,14.2942833 37.0967006,12.9055581 35.1013372,11.9056759 C33.050547,10.9057937 30.7780498,10.4058526 28.2838455,10.4058526 C25.845068,10.4058526 23.5725708,11.0168917 21.5217806,12.2389699 C19.4709905,13.4610482 17.8081876,15.1275185 16.5887989,17.1828319 C15.3694101,19.2381453 14.7597158,21.5156548 14.7597158,23.9598113 L14.7597158,33.0698491 Z"></path>
                                    </g>
                                    <g transform="translate(51.547105, 8.930911)" fill="#FFFFFF" fill-rule="nonzero" id="Shape">
                                        <path d="M16.516027,0.347836838 L18.6776707,0.347836838 L34.5297244,39.0099485 L32.312654,39.0099485 L27.1025384,26.233676 L8.09115931,26.233676 L2.82561699,39.0099485 L0.6639733,39.0099485 L16.516027,0.347836838 Z M8.92256073,24.2339116 L26.271137,24.2339116 L17.5691355,3.01418937 L8.92256073,24.2339116 Z"></path>
                                    </g>
                                    <g transform="translate(82.125332, 0.094973)" fill="#FFFFFF" fill-rule="nonzero" id="Path">
                                        <path d="M28.8381131,29.3480653 C25.6787877,28.7370262 23.1291567,28.0148891 21.1892201,27.2372029 C19.1938567,26.5150658 17.6419074,25.4596346 16.5333721,24.1264583 C15.3694101,22.848831 14.8151425,21.1268117 14.8151425,19.0714983 C14.8151425,16.9050869 15.3694101,15.0164205 16.5333721,13.4054992 C17.6419074,11.7945779 19.2492834,10.5169506 21.3000736,9.62816643 C23.3508638,8.73938225 25.6787877,8.29499016 28.394699,8.29499016 C30.9997568,8.29499016 33.3831076,8.85048027 35.5447513,9.90591148 C37.7063949,11.0168917 39.3691978,12.572264 40.6440133,14.5164794 C41.9188288,16.4606948 42.5285232,18.7382042 42.5285232,21.2379097 L40.477733,21.2379097 C40.477733,19.0714983 39.9234654,17.1272829 38.8703569,15.4608126 C37.8172485,13.7943422 36.3207259,12.516715 34.4916428,11.5723818 C32.6625597,10.6835976 30.6117695,10.2392055 28.3392723,10.2392055 C26.3439089,10.2392055 24.459399,10.5724996 22.7411694,11.1835387 C21.0229398,11.7945779 19.581844,12.7944601 18.5287355,14.0720873 C17.4202003,15.3497146 16.8659327,17.0161849 16.8659327,18.9604003 C16.8659327,20.7379686 17.3647735,22.1266939 18.417882,23.1821251 C19.4709905,24.2375563 20.8012327,25.0707915 22.4640356,25.6262816 C24.1268384,26.1817717 26.4547624,26.7928108 29.4478075,27.4038499 C32.4962794,28.0148891 34.8242034,28.6259282 36.542433,29.1814183 C38.2052358,29.7924574 39.6463316,30.7367906 40.8102936,32.0699669 C41.9742556,33.4031431 42.5285232,35.2918095 42.5285232,37.680417 C42.5285232,40.0690244 41.863402,42.1243378 40.6440133,43.7352592 C39.3691978,45.4017295 37.6509682,46.6238077 35.5447513,47.4570429 C33.4385343,48.2902781 31.1660371,48.6791211 28.6718329,48.6791211 C25.623361,48.6791211 22.9074497,48.123631 20.5795257,46.9571018 C18.2516017,45.7905726 16.4779454,44.1796513 15.2585566,42.0687888 C13.9837411,40.0134754 13.3740467,37.624868 13.3740467,34.9029664 L15.4248369,34.9029664 C15.4248369,37.2915739 15.9791045,39.3468873 17.032213,41.1244557 C18.0853214,42.902024 19.581844,44.2907493 21.5772074,45.2350825 C23.5725708,46.2349647 25.9559215,46.7349058 28.6718329,46.7349058 C32.0528653,46.7349058 34.8796301,45.9016706 37.1521273,44.2907493 C39.3691978,42.679828 40.477733,40.4578675 40.477733,37.624868 C40.477733,35.6806526 39.9788922,34.2363783 39.0366372,33.1809471 C38.0943823,32.1255159 36.8749935,31.4033787 35.4338977,30.9034376 C33.9373752,30.4590455 31.7757315,29.9591044 28.8381131,29.3480653 Z"></path>
                                    </g>
                                    <g transform="translate(123.141135, 0.094973)" fill="#FFFFFF" fill-rule="nonzero" id="Path">
                                        <polygon points="43.5816316 9.18377434 43.5816316 11.2390877 29.0043934 11.2390877 29.0043934 47.845886 27.00903 47.845886 27.00903 11.2390877 12.4317918 11.2390877 12.4317918 9.18377434"></polygon>
                                    </g>
                                    <g transform="translate(175.502784, 8.024661)" fill="#FFFFFF" fill-rule="nonzero" id="Shape">
                                        <path d="M16.6614432,0.420851673 C19.5436348,0.420851673 22.2041193,1.14298882 24.6428968,2.53171409 C27.0816743,3.97598838 29.021611,5.92020376 30.4627067,8.36436024 C31.8483758,10.8085167 32.5689237,13.4748693 32.5689237,16.3634178 L32.5689237,24.8068675 C32.5689237,27.6954161 31.8483758,30.3617686 30.4627067,32.8059251 C29.021611,35.2500816 27.0816743,37.1942969 24.6428968,38.5830222 C22.2041193,40.0272965 19.5436348,40.7494336 16.6614432,40.7494336 C13.7792516,40.7494336 11.1187671,40.0272965 8.67998956,38.5830222 C6.24121206,37.1942969 4.30127542,35.2500816 2.91560639,32.8059251 C1.47451059,30.3617686 0.753962695,27.6954161 0.753962695,24.8068675 L0.753962695,16.3634178 C0.753962695,13.4748693 1.47451059,10.8085167 2.91560639,8.36436024 C4.30127542,5.92020376 6.24121206,3.97598838 8.67998956,2.53171409 C11.1187671,1.14298882 13.7792516,0.420851673 16.6614432,0.420851673 Z M2.80475286,24.8068675 C2.80475286,27.306573 3.41444724,29.6396314 4.68926275,31.7504939 C5.9086515,33.9169053 7.57145433,35.5833756 9.73309802,36.8054539 C11.839315,38.0830811 14.1672389,38.6941202 16.6614432,38.6941202 C19.1556474,38.6941202 21.4835714,38.0830811 23.6452151,36.8054539 C25.751432,35.5833756 27.4142349,33.9169053 28.6890504,31.7504939 C29.9084391,29.6396314 30.5181335,27.306573 30.5181335,24.8068675 L30.5181335,16.3634178 C30.5181335,13.8637123 29.9084391,11.5306539 28.6890504,9.36424244 C27.4142349,7.25338002 25.751432,5.58690969 23.6452151,4.30928244 C21.4835714,3.0872042 19.1556474,2.47616508 16.6614432,2.47616508 C14.1672389,2.47616508 11.839315,3.0872042 9.73309802,4.30928244 C7.57145433,5.58690969 5.9086515,7.25338002 4.68926275,9.36424244 C3.41444724,11.5306539 2.80475286,13.8637123 2.80475286,16.3634178 L2.80475286,24.8068675 Z"></path>
                                    </g>
                                    <g transform="translate(219.457354, 8.930911)" fill="#FFFFFF" fill-rule="nonzero" id="Shape">
                                        <path d="M22.092118,1.62546409 C24.3091884,2.6808953 26.027418,4.1807186 27.3576603,6.236032 C28.6324758,8.29134541 29.2421702,10.5133058 29.2421702,13.0130113 C29.2421702,15.9015599 28.355342,18.4568144 26.6371124,20.7343239 C24.863456,23.0118333 22.5909588,24.5672056 19.8750475,25.2893428 L29.6855843,39.0099485 L27.2468068,39.0099485 L17.7688306,25.6781858 L15.9951742,25.7337349 L2.08305713,25.7337349 L2.08305713,39.0099485 L0.0322669627,39.0099485 L0.0322669627,0.347836838 L14.7203587,0.347836838 C16.3277348,0.347836838 17.7688306,0.45893486 18.9327926,0.625581893 C20.0967546,0.847777937 21.149863,1.181072 22.092118,1.62546409 Z M16.5494418,23.6784214 C18.4893785,23.6784214 20.2630348,23.1784804 21.8704109,22.2341472 C23.477787,21.289814 24.8080293,19.9566377 25.7502842,18.3457164 C26.6925391,16.7347951 27.19138,14.9572267 27.19138,13.0130113 C27.19138,10.8465999 26.6371124,8.90238453 25.5285772,7.18036519 C24.3646152,5.45834585 22.8126659,4.12516958 20.8173024,3.29193442 C19.3762067,2.6808953 17.3254165,2.40315024 14.7203587,2.40315024 L2.08305713,2.40315024 L2.08305713,23.6784214 L16.5494418,23.6784214 Z"></path>
                                    </g>
                                </g>
                                <g transform="translate(54.611839, 51.131300)">
                                    <g transform="translate(0.163009, 3.241962)" fill="#FFFFFF" fill-rule="nonzero" id="Path">
                                        <polygon points="10.254968 2.17468457 10.254968 2.6599669 7.53289821 2.6599669 7.53289821 10.8179564 10.254968 10.8179564 10.254968 11.3032387 4.35278778 11.3032387 4.35278778 10.8179564 7.06177074 10.8179564 7.06177074 2.6599669 4.35278778 2.6599669 4.35278778 2.17468457"></polygon>
                                    </g>
                                    <g transform="translate(9.847295, 3.241962)" fill="#FFFFFF" fill-rule="nonzero" id="Path">
                                        <polygon points="10.9747461 2.17468457 10.9747461 2.6599669 7.53289821 2.6599669 7.53289821 11.3032387 7.06177074 11.3032387 7.06177074 2.6599669 3.61992283 2.6599669 3.61992283 2.17468457"></polygon>
                                    </g>
                                    <g transform="translate(19.531582, 0.094973)" fill="#FFFFFF" fill-rule="nonzero" id="Path">
                                        <polygon points="8.26576317 5.32167327 7.55907196 9.13835323 6.34199266 9.13835323 6.34199266 5.32167327"></polygon>
                                    </g>
                                    <g transform="translate(29.215869, 3.241962)" fill="#FFFFFF" fill-rule="nonzero" id="Path">
                                        <path d="M7.49363759,6.93569772 C6.74768576,6.79142459 6.14568955,6.62091999 5.68764895,6.43729964 C5.21652148,6.26679504 4.850089,6.01759601 4.58835152,5.70281828 C4.31352716,5.40115629 4.18265842,4.99456839 4.18265842,4.50928606 C4.18265842,3.99777225 4.31352716,3.55183713 4.58835152,3.17148071 C4.850089,2.79112428 5.22960836,2.48946229 5.7138227,2.27961048 C6.19803705,2.06975866 6.74768576,1.96483275 7.3889426,1.96483275 C8.00402568,1.96483275 8.56676127,2.09599013 9.07714937,2.34518917 C9.58753746,2.60750394 9.98014369,2.97474463 10.2811418,3.43379548 C10.5821399,3.89284634 10.7260955,4.43059162 10.7260955,5.02079986 L10.2418812,5.02079986 C10.2418812,4.50928606 10.1110124,4.0502352 9.86236182,3.65676304 C9.61371121,3.26329088 9.26036561,2.96162889 8.82849876,2.73866133 C8.39663191,2.52880951 7.91241756,2.4238836 7.37585572,2.4238836 C6.90472825,2.4238836 6.45977453,2.50257803 6.05408143,2.64685116 C5.64838833,2.79112428 5.3081296,3.02720758 5.05947899,3.32886957 C4.79774151,3.63053156 4.66687276,4.02400372 4.66687276,4.48305458 C4.66687276,4.90275822 4.78465463,5.23065168 5.03330524,5.47985072 C5.28195585,5.72904975 5.59604083,5.92578584 5.98864706,6.05694322 C6.38125328,6.18810061 6.930902,6.33237373 7.63759321,6.47664686 C8.35737129,6.62091999 8.90702,6.76519311 9.3127131,6.8963505 C9.70531933,7.04062362 10.0455781,7.26359118 10.3204024,7.57836891 C10.5952268,7.89314664 10.7260955,8.33908176 10.7260955,8.90305852 C10.7260955,9.46703529 10.569053,9.95231762 10.2811418,10.332674 C9.98014369,10.7261462 9.57445059,11.0146925 9.07714937,11.2114285 C8.57984815,11.4081646 8.04328631,11.4999748 7.45437697,11.4999748 C6.73459889,11.4999748 6.09334205,11.3688174 5.54369334,11.0933869 C4.99404462,10.8179564 4.57526465,10.4375999 4.28735341,9.93920188 C3.98635531,9.45391955 3.84239969,8.88994278 3.84239969,8.24727159 L4.32661404,8.24727159 C4.32661404,8.81124835 4.45748278,9.29653068 4.70613339,9.71623432 C4.954784,10.135938 5.3081296,10.4638314 5.77925707,10.686799 C6.25038454,10.9228823 6.81312013,11.0409239 7.45437697,11.0409239 C8.25267629,11.0409239 8.92010688,10.8441878 9.45666872,10.4638314 C9.98014369,10.083475 10.2418812,9.55884546 10.2418812,8.88994278 C10.2418812,8.43089193 10.1240993,8.08988272 9.90162244,7.84068369 C9.67914558,7.59148465 9.39123435,7.42098005 9.05097562,7.3029384 C8.69763002,7.19801249 8.18724192,7.07997084 7.49363759,6.93569772 Z"></path>
                                    </g>
                                    <g transform="translate(48.584443, 3.241962)" fill="#FFFFFF" fill-rule="nonzero" id="Path">
                                        <path d="M7.14029199,11.4999748 C6.5252089,11.4999748 5.94938644,11.3557017 5.41282459,11.0671554 C4.87626275,10.7917249 4.4443959,10.3982527 4.10413717,9.89985466 C3.76387845,9.40145659 3.56757533,8.85059557 3.50214096,8.24727159 L3.98635531,8.24727159 C4.05178968,8.7587854 4.22191904,9.23095199 4.52291715,9.65065563 C4.82391525,10.083475 5.20343461,10.4113685 5.6614752,10.6474518 C6.1195158,10.8966508 6.60373015,11.0146925 7.14029199,11.0146925 C7.72920133,11.0146925 8.26576317,10.8704193 8.74997751,10.5818731 C9.23419186,10.2933268 9.62679808,9.89985466 9.91470932,9.38834085 C10.2026205,8.87682704 10.3465762,8.31285028 10.3465762,7.68329482 L10.3465762,2.6599669 L6.26347142,2.6599669 L6.26347142,2.17468457 L10.8177036,2.17468457 L10.8177036,7.68329482 C10.8177036,8.40466045 10.6606611,9.04733165 10.3334893,9.62442415 C10.0063174,10.2146324 9.56136371,10.6736832 8.99862812,11.0015767 C8.42280566,11.3294702 7.80772257,11.4999748 7.14029199,11.4999748 Z"></path>
                                    </g>
                                    <g transform="translate(58.268730, 3.241962)" fill="#FFFFFF" fill-rule="nonzero" id="Path">
                                        <path d="M3.61992283,2.17468457 L4.10413717,2.17468457 L4.10413717,7.81445221 C4.10413717,8.39154471 4.24809279,8.92929 4.53600402,9.41457233 C4.82391525,9.89985466 5.21652148,10.2933268 5.70073583,10.5818731 C6.18495017,10.8704193 6.72151201,11.0146925 7.29733448,11.0146925 C7.87315694,11.0146925 8.40971878,10.8704193 8.89393313,10.5818731 C9.37814747,10.2933268 9.7707537,9.89985466 10.0586649,9.41457233 C10.3465762,8.92929 10.4905318,8.39154471 10.4905318,7.81445221 L10.4905318,2.17468457 L10.9747461,2.17468457 L10.9747461,7.81445221 C10.9747461,8.48335488 10.8046168,9.08667886 10.4774449,9.65065563 C10.1502731,10.2146324 9.70531933,10.6736832 9.14258374,11.0015767 C8.57984815,11.3294702 7.96476506,11.4999748 7.29733448,11.4999748 C6.62990389,11.4999748 6.02790768,11.3294702 5.46517209,11.0015767 C4.9024365,10.6736832 4.4443959,10.2146324 4.11722405,9.65065563 C3.79005219,9.08667886 3.61992283,8.48335488 3.61992283,7.81445221 L3.61992283,2.17468457 Z"></path>
                                    </g>
                                    <g transform="translate(67.953017, 3.241962)" fill="#FFFFFF" fill-rule="nonzero" id="Path">
                                        <path d="M7.49363759,6.93569772 C6.74768576,6.79142459 6.14568955,6.62091999 5.68764895,6.43729964 C5.21652148,6.26679504 4.850089,6.01759601 4.58835152,5.70281828 C4.31352716,5.40115629 4.18265842,4.99456839 4.18265842,4.50928606 C4.18265842,3.99777225 4.31352716,3.55183713 4.58835152,3.17148071 C4.850089,2.79112428 5.22960836,2.48946229 5.7138227,2.27961048 C6.19803705,2.06975866 6.74768576,1.96483275 7.3889426,1.96483275 C8.00402568,1.96483275 8.56676127,2.09599013 9.07714937,2.34518917 C9.58753746,2.60750394 9.98014369,2.97474463 10.2811418,3.43379548 C10.5821399,3.89284634 10.7260955,4.43059162 10.7260955,5.02079986 L10.2418812,5.02079986 C10.2418812,4.50928606 10.1110124,4.0502352 9.86236182,3.65676304 C9.61371121,3.26329088 9.26036561,2.96162889 8.82849876,2.73866133 C8.39663191,2.52880951 7.91241756,2.4238836 7.37585572,2.4238836 C6.90472825,2.4238836 6.45977453,2.50257803 6.05408143,2.64685116 C5.64838833,2.79112428 5.3081296,3.02720758 5.05947899,3.32886957 C4.79774151,3.63053156 4.66687276,4.02400372 4.66687276,4.48305458 C4.66687276,4.90275822 4.78465463,5.23065168 5.03330524,5.47985072 C5.28195585,5.72904975 5.59604083,5.92578584 5.98864706,6.05694322 C6.38125328,6.18810061 6.930902,6.33237373 7.63759321,6.47664686 C8.35737129,6.62091999 8.90702,6.76519311 9.3127131,6.8963505 C9.70531933,7.04062362 10.0455781,7.26359118 10.3204024,7.57836891 C10.5952268,7.89314664 10.7260955,8.33908176 10.7260955,8.90305852 C10.7260955,9.46703529 10.569053,9.95231762 10.2811418,10.332674 C9.98014369,10.7261462 9.57445059,11.0146925 9.07714937,11.2114285 C8.57984815,11.4081646 8.04328631,11.4999748 7.45437697,11.4999748 C6.73459889,11.4999748 6.09334205,11.3688174 5.54369334,11.0933869 C4.99404462,10.8179564 4.57526465,10.4375999 4.28735341,9.93920188 C3.98635531,9.45391955 3.84239969,8.88994278 3.84239969,8.24727159 L4.32661404,8.24727159 C4.32661404,8.81124835 4.45748278,9.29653068 4.70613339,9.71623432 C4.954784,10.135938 5.3081296,10.4638314 5.77925707,10.686799 C6.25038454,10.9228823 6.81312013,11.0409239 7.45437697,11.0409239 C8.25267629,11.0409239 8.92010688,10.8441878 9.45666872,10.4638314 C9.98014369,10.083475 10.2418812,9.55884546 10.2418812,8.88994278 C10.2418812,8.43089193 10.1240993,8.08988272 9.90162244,7.84068369 C9.67914558,7.59148465 9.39123435,7.42098005 9.05097562,7.3029384 C8.69763002,7.19801249 8.18724192,7.07997084 7.49363759,6.93569772 Z"></path>
                                    </g>
                                    <g transform="translate(77.637304, 3.241962)" fill="#FFFFFF" fill-rule="nonzero" id="Path">
                                        <polygon points="10.9747461 2.17468457 10.9747461 2.6599669 7.53289821 2.6599669 7.53289821 11.3032387 7.06177074 11.3032387 7.06177074 2.6599669 3.61992283 2.6599669 3.61992283 2.17468457"></polygon>
                                    </g>
                                    <g transform="translate(100.368761, 5.281025)" fill="#FFFFFF" fill-rule="nonzero" id="Shape">
                                        <path d="M5.91056915,0.437284056 C6.43404412,0.686483091 6.83973722,1.04060804 7.1538222,1.52589037 C7.4548203,2.0111727 7.59877592,2.53580225 7.59877592,3.12601049 C7.59877592,3.8080289 7.38938593,4.41135288 6.98369283,4.94909817 C6.56491286,5.48684346 6.02835102,5.85408414 5.38709418,6.02458874 L7.70347091,9.2641762 L7.12764845,9.2641762 L4.88979296,6.11639891 L4.47101299,6.12951465 L1.18620756,6.12951465 L1.18620756,9.2641762 L0.701993218,9.2641762 L0.701993218,0.135622066 L4.17001488,0.135622066 C4.54953423,0.135622066 4.88979296,0.161853543 5.16461732,0.201200759 C5.43944168,0.253663714 5.68809229,0.332358146 5.91056915,0.437284056 Z M4.60188173,5.64423232 C5.05992232,5.64423232 5.4787023,5.52619067 5.85822165,5.30322312 C6.237741,5.08025556 6.55182598,4.76547783 6.77430284,4.38512141 C6.99677971,4.00476498 7.11456157,3.58506134 7.11456157,3.12601049 C7.11456157,2.61449668 6.98369283,2.15544583 6.72195535,1.74885793 C6.44713099,1.34227003 6.08069851,1.0274923 5.60957104,0.830756217 C5.26931231,0.686483091 4.78509797,0.620904398 4.17001488,0.620904398 L1.18620756,0.620904398 L1.18620756,5.64423232 L4.60188173,5.64423232 Z"></path>
                                    </g>
                                    <g transform="translate(110.053048, 4.374775)" fill="#FFFFFF" fill-rule="nonzero" id="Shape">
                                        <path d="M3.93445114,0.845135985 C4.6149686,0.845135985 5.24313856,1.01564059 5.81896103,1.34353406 C6.39478349,1.68454326 6.85282409,2.14359412 7.19308282,2.72068662 C7.52025467,3.29777912 7.69038404,3.92733458 7.69038404,4.60935299 L7.69038404,6.60294528 C7.69038404,7.28496369 7.52025467,7.91451915 7.19308282,8.49161165 C6.85282409,9.06870415 6.39478349,9.52775501 5.81896103,9.85564847 C5.24313856,10.1966577 4.6149686,10.3671623 3.93445114,10.3671623 C3.25393369,10.3671623 2.62576372,10.1966577 2.04994126,9.85564847 C1.4741188,9.52775501 1.0160782,9.06870415 0.688906344,8.49161165 C0.348647615,7.91451915 0.17851825,7.28496369 0.17851825,6.60294528 L0.17851825,4.60935299 C0.17851825,3.92733458 0.348647615,3.29777912 0.688906344,2.72068662 C1.0160782,2.14359412 1.4741188,1.68454326 2.04994126,1.34353406 C2.62576372,1.01564059 3.25393369,0.845135985 3.93445114,0.845135985 Z M0.662732596,6.60294528 C0.662732596,7.19315352 0.806688212,7.74401454 1.10768632,8.24241261 C1.39559755,8.75392642 1.78820378,9.14739858 2.29859187,9.43594484 C2.79589309,9.73760683 3.34554181,9.88187995 3.93445114,9.88187995 C4.52336048,9.88187995 5.0730092,9.73760683 5.58339729,9.43594484 C6.08069851,9.14739858 6.47330474,8.75392642 6.77430284,8.24241261 C7.06221408,7.74401454 7.20616969,7.19315352 7.20616969,6.60294528 L7.20616969,4.60935299 C7.20616969,4.01914475 7.06221408,3.46828373 6.77430284,2.95676992 C6.47330474,2.45837185 6.08069851,2.06489968 5.58339729,1.76323769 C5.0730092,1.47469144 4.52336048,1.33041832 3.93445114,1.33041832 C3.34554181,1.33041832 2.79589309,1.47469144 2.29859187,1.76323769 C1.78820378,2.06489968 1.39559755,2.45837185 1.10768632,2.95676992 C0.806688212,3.46828373 0.662732596,4.01914475 0.662732596,4.60935299 L0.662732596,6.60294528 Z"></path>
                                    </g>
                                    <g transform="translate(116.374451, 3.241962)" fill="#FFFFFF" fill-rule="nonzero" id="Path">
                                        <path d="M4.16957155,7.81445221 C4.16957155,8.39154471 4.31352716,8.92929 4.61452527,9.41457233 C4.9024365,9.89985466 5.29504273,10.2933268 5.79234395,10.5818731 C6.27655829,10.8704193 6.81312013,11.0146925 7.3889426,11.0146925 C7.97785194,11.0146925 8.51441378,10.8966508 8.99862812,10.6605675 C9.48284247,10.4244842 9.86236182,10.0965907 10.1371862,9.6768871 C10.4120105,9.25718347 10.5428793,8.78501687 10.5559662,8.26038732 L11.0270936,8.26038732 C11.0270936,8.8637113 10.8700511,9.41457233 10.5559662,9.89985466 C10.2287943,10.3982527 9.79692745,10.7917249 9.24727873,11.0671554 C8.68454314,11.3557017 8.06946006,11.4999748 7.3889426,11.4999748 C6.72151201,11.4999748 6.10642893,11.3294702 5.54369334,11.0015767 C4.98095775,10.6736832 4.52291715,10.2146324 4.19574529,9.65065563 C3.86857344,9.08667886 3.69844407,8.48335488 3.69844407,7.81445221 L3.69844407,5.66347106 C3.69844407,4.99456839 3.86857344,4.37812867 4.19574529,3.8141519 C4.52291715,3.25017514 4.96787087,2.80424002 5.53060646,2.47634656 C6.09334205,2.14845309 6.69533826,1.97794849 7.36276885,1.97794849 C8.03019943,1.97794849 8.64528252,2.12222161 9.20801811,2.39765212 C9.75766683,2.68619838 10.1895337,3.07967054 10.5167055,3.56495287 C10.8438774,4.06335094 11.0009199,4.61421196 11.0009199,5.21753595 L10.5297924,5.21753595 C10.5167055,4.6929064 10.3727499,4.2207398 10.0979256,3.80103617 C9.8231012,3.38133253 9.44358185,3.05343906 8.97245437,2.81735576 C8.48824003,2.58127247 7.95167819,2.46323082 7.36276885,2.46323082 C6.78694638,2.46323082 6.25038454,2.60750394 5.7661702,2.89605019 C5.28195585,3.18459645 4.88934963,3.57806861 4.60143839,4.06335094 C4.31352716,4.54863327 4.16957155,5.08637856 4.16957155,5.66347106 L4.16957155,7.81445221 Z"></path>
                                    </g>
                                    <g transform="translate(126.967008, 3.241962)" fill="#FFFFFF" fill-rule="nonzero" id="Path">
                                        <polygon points="3.47126922 2.17468457 3.47126922 8.3521975 9.64827384 2.17468457 10.3287913 2.17468457 6.52051091 5.97824879 10.3157044 11.3032387 9.73988196 11.3032387 6.18025218 6.319258 3.47126922 9.03421591 3.47126922 11.3032387 2.98705488 11.3032387 2.98705488 2.17468457"></polygon>
                                    </g>
                                    <g transform="translate(135.743603, 3.241962)" fill="#FFFFFF" fill-rule="nonzero" id="Path">
                                        <polygon points="4.15648467 2.17468457 10.569053 2.17468457 10.569053 2.6599669 4.64069902 2.6599669 4.64069902 6.35860521 9.79692745 6.35860521 9.79692745 6.84388754 4.64069902 6.84388754 4.64069902 10.8179564 10.569053 10.8179564 10.569053 11.3032387 4.15648467 11.3032387"></polygon>
                                    </g>
                                    <g transform="translate(145.427889, 3.241962)" fill="#FFFFFF" fill-rule="nonzero" id="Path">
                                        <polygon points="10.9747461 2.17468457 10.9747461 2.6599669 7.53289821 2.6599669 7.53289821 11.3032387 7.06177074 11.3032387 7.06177074 2.6599669 3.61992283 2.6599669 3.61992283 2.17468457"></polygon>
                                    </g>
                                    <g transform="translate(164.796463, 3.241962)" fill="#FFFFFF" fill-rule="nonzero" id="Path">
                                        <path d="M7.49363759,6.93569772 C6.74768576,6.79142459 6.14568955,6.62091999 5.68764895,6.43729964 C5.21652148,6.26679504 4.850089,6.01759601 4.58835152,5.70281828 C4.31352716,5.40115629 4.18265842,4.99456839 4.18265842,4.50928606 C4.18265842,3.99777225 4.31352716,3.55183713 4.58835152,3.17148071 C4.850089,2.79112428 5.22960836,2.48946229 5.7138227,2.27961048 C6.19803705,2.06975866 6.74768576,1.96483275 7.3889426,1.96483275 C8.00402568,1.96483275 8.56676127,2.09599013 9.07714937,2.34518917 C9.58753746,2.60750394 9.98014369,2.97474463 10.2811418,3.43379548 C10.5821399,3.89284634 10.7260955,4.43059162 10.7260955,5.02079986 L10.2418812,5.02079986 C10.2418812,4.50928606 10.1110124,4.0502352 9.86236182,3.65676304 C9.61371121,3.26329088 9.26036561,2.96162889 8.82849876,2.73866133 C8.39663191,2.52880951 7.91241756,2.4238836 7.37585572,2.4238836 C6.90472825,2.4238836 6.45977453,2.50257803 6.05408143,2.64685116 C5.64838833,2.79112428 5.3081296,3.02720758 5.05947899,3.32886957 C4.79774151,3.63053156 4.66687276,4.02400372 4.66687276,4.48305458 C4.66687276,4.90275822 4.78465463,5.23065168 5.03330524,5.47985072 C5.28195585,5.72904975 5.59604083,5.92578584 5.98864706,6.05694322 C6.38125328,6.18810061 6.930902,6.33237373 7.63759321,6.47664686 C8.35737129,6.62091999 8.90702,6.76519311 9.3127131,6.8963505 C9.70531933,7.04062362 10.0455781,7.26359118 10.3204024,7.57836891 C10.5952268,7.89314664 10.7260955,8.33908176 10.7260955,8.90305852 C10.7260955,9.46703529 10.569053,9.95231762 10.2811418,10.332674 C9.98014369,10.7261462 9.57445059,11.0146925 9.07714937,11.2114285 C8.57984815,11.4081646 8.04328631,11.4999748 7.45437697,11.4999748 C6.73459889,11.4999748 6.09334205,11.3688174 5.54369334,11.0933869 C4.99404462,10.8179564 4.57526465,10.4375999 4.28735341,9.93920188 C3.98635531,9.45391955 3.84239969,8.88994278 3.84239969,8.24727159 L4.32661404,8.24727159 C4.32661404,8.81124835 4.45748278,9.29653068 4.70613339,9.71623432 C4.954784,10.135938 5.3081296,10.4638314 5.77925707,10.686799 C6.25038454,10.9228823 6.81312013,11.0409239 7.45437697,11.0409239 C8.25267629,11.0409239 8.92010688,10.8441878 9.45666872,10.4638314 C9.98014369,10.083475 10.2418812,9.55884546 10.2418812,8.88994278 C10.2418812,8.43089193 10.1240993,8.08988272 9.90162244,7.84068369 C9.67914558,7.59148465 9.39123435,7.42098005 9.05097562,7.3029384 C8.69763002,7.19801249 8.18724192,7.07997084 7.49363759,6.93569772 Z"></path>
                                    </g>
                                    <g transform="translate(174.480750, 3.241962)" fill="#FFFFFF" fill-rule="nonzero" id="Path">
                                        <path d="M4.16957155,7.81445221 C4.16957155,8.39154471 4.31352716,8.92929 4.61452527,9.41457233 C4.9024365,9.89985466 5.29504273,10.2933268 5.79234395,10.5818731 C6.27655829,10.8704193 6.81312013,11.0146925 7.3889426,11.0146925 C7.97785194,11.0146925 8.51441378,10.8966508 8.99862812,10.6605675 C9.48284247,10.4244842 9.86236182,10.0965907 10.1371862,9.6768871 C10.4120105,9.25718347 10.5428793,8.78501687 10.5559662,8.26038732 L11.0270936,8.26038732 C11.0270936,8.8637113 10.8700511,9.41457233 10.5559662,9.89985466 C10.2287943,10.3982527 9.79692745,10.7917249 9.24727873,11.0671554 C8.68454314,11.3557017 8.06946006,11.4999748 7.3889426,11.4999748 C6.72151201,11.4999748 6.10642893,11.3294702 5.54369334,11.0015767 C4.98095775,10.6736832 4.52291715,10.2146324 4.19574529,9.65065563 C3.86857344,9.08667886 3.69844407,8.48335488 3.69844407,7.81445221 L3.69844407,5.66347106 C3.69844407,4.99456839 3.86857344,4.37812867 4.19574529,3.8141519 C4.52291715,3.25017514 4.96787087,2.80424002 5.53060646,2.47634656 C6.09334205,2.14845309 6.69533826,1.97794849 7.36276885,1.97794849 C8.03019943,1.97794849 8.64528252,2.12222161 9.20801811,2.39765212 C9.75766683,2.68619838 10.1895337,3.07967054 10.5167055,3.56495287 C10.8438774,4.06335094 11.0009199,4.61421196 11.0009199,5.21753595 L10.5297924,5.21753595 C10.5167055,4.6929064 10.3727499,4.2207398 10.0979256,3.80103617 C9.8231012,3.38133253 9.44358185,3.05343906 8.97245437,2.81735576 C8.48824003,2.58127247 7.95167819,2.46323082 7.36276885,2.46323082 C6.78694638,2.46323082 6.25038454,2.60750394 5.7661702,2.89605019 C5.28195585,3.18459645 4.88934963,3.57806861 4.60143839,4.06335094 C4.31352716,4.54863327 4.16957155,5.08637856 4.16957155,5.66347106 L4.16957155,7.81445221 Z"></path>
                                    </g>
                                    <g transform="translate(184.165037, 3.241962)" fill="#FFFFFF" fill-rule="nonzero" id="Path">
                                        <polygon points="10.254968 2.17468457 10.254968 2.6599669 7.53289821 2.6599669 7.53289821 10.8179564 10.254968 10.8179564 10.254968 11.3032387 4.35278778 11.3032387 4.35278778 10.8179564 7.06177074 10.8179564 7.06177074 2.6599669 4.35278778 2.6599669 4.35278778 2.17468457"></polygon>
                                    </g>
                                    <g transform="translate(193.849324, 3.241962)" fill="#FFFFFF" fill-rule="nonzero" id="Path">
                                        <polygon points="4.15648467 2.17468457 10.569053 2.17468457 10.569053 2.6599669 4.64069902 2.6599669 4.64069902 6.35860521 9.79692745 6.35860521 9.79692745 6.84388754 4.64069902 6.84388754 4.64069902 10.8179564 10.569053 10.8179564 10.569053 11.3032387 4.15648467 11.3032387"></polygon>
                                    </g>
                                    <g transform="translate(203.533611, 3.241962)" fill="#FFFFFF" fill-rule="nonzero" id="Path">
                                        <polygon points="3.7377047 11.3032387 3.7377047 2.17468457 4.24809279 2.17468457 10.6083136 8.36531323 10.6083136 2.17468457 11.092528 2.17468457 11.092528 11.3032387 10.6083136 11.3032387 10.6083136 9.04733165 4.22191904 2.80424002 4.22191904 11.3032387"></polygon>
                                    </g>
                                    <g transform="translate(213.217898, 3.241962)" fill="#FFFFFF" fill-rule="nonzero" id="Path">
                                        <path d="M4.16957155,7.81445221 C4.16957155,8.39154471 4.31352716,8.92929 4.61452527,9.41457233 C4.9024365,9.89985466 5.29504273,10.2933268 5.79234395,10.5818731 C6.27655829,10.8704193 6.81312013,11.0146925 7.3889426,11.0146925 C7.97785194,11.0146925 8.51441378,10.8966508 8.99862812,10.6605675 C9.48284247,10.4244842 9.86236182,10.0965907 10.1371862,9.6768871 C10.4120105,9.25718347 10.5428793,8.78501687 10.5559662,8.26038732 L11.0270936,8.26038732 C11.0270936,8.8637113 10.8700511,9.41457233 10.5559662,9.89985466 C10.2287943,10.3982527 9.79692745,10.7917249 9.24727873,11.0671554 C8.68454314,11.3557017 8.06946006,11.4999748 7.3889426,11.4999748 C6.72151201,11.4999748 6.10642893,11.3294702 5.54369334,11.0015767 C4.98095775,10.6736832 4.52291715,10.2146324 4.19574529,9.65065563 C3.86857344,9.08667886 3.69844407,8.48335488 3.69844407,7.81445221 L3.69844407,5.66347106 C3.69844407,4.99456839 3.86857344,4.37812867 4.19574529,3.8141519 C4.52291715,3.25017514 4.96787087,2.80424002 5.53060646,2.47634656 C6.09334205,2.14845309 6.69533826,1.97794849 7.36276885,1.97794849 C8.03019943,1.97794849 8.64528252,2.12222161 9.20801811,2.39765212 C9.75766683,2.68619838 10.1895337,3.07967054 10.5167055,3.56495287 C10.8438774,4.06335094 11.0009199,4.61421196 11.0009199,5.21753595 L10.5297924,5.21753595 C10.5167055,4.6929064 10.3727499,4.2207398 10.0979256,3.80103617 C9.8231012,3.38133253 9.44358185,3.05343906 8.97245437,2.81735576 C8.48824003,2.58127247 7.95167819,2.46323082 7.36276885,2.46323082 C6.78694638,2.46323082 6.25038454,2.60750394 5.7661702,2.89605019 C5.28195585,3.18459645 4.88934963,3.57806861 4.60143839,4.06335094 C4.31352716,4.54863327 4.16957155,5.08637856 4.16957155,5.66347106 L4.16957155,7.81445221 Z"></path>
                                    </g>
                                    <g transform="translate(222.902185, 3.241962)" fill="#FFFFFF" fill-rule="nonzero" id="Path">
                                        <polygon points="4.15648467 2.17468457 10.569053 2.17468457 10.569053 2.6599669 4.64069902 2.6599669 4.64069902 6.35860521 9.79692745 6.35860521 9.79692745 6.84388754 4.64069902 6.84388754 4.64069902 10.8179564 10.569053 10.8179564 10.569053 11.3032387 4.15648467 11.3032387"></polygon>
                                    </g>
                                    <g transform="translate(232.586472, 6.187275)" fill="#FFFFFF" fill-rule="nonzero" id="Path">
                                        <path d="M6.10642893,7.36113006 C6.10642893,7.03323659 6.22421079,6.75780608 6.45977453,6.52172279 C6.68225139,6.29875523 6.97016262,6.18071358 7.29733448,6.18071358 C7.62450633,6.18071358 7.91241756,6.29875523 8.1479813,6.52172279 C8.37045816,6.75780608 8.48824003,7.03323659 8.48824003,7.36113006 C8.48824003,7.68902353 8.37045816,7.96445404 8.1479813,8.20053734 C7.91241756,8.43662064 7.62450633,8.55466228 7.29733448,8.55466228 C6.97016262,8.55466228 6.69533826,8.43662064 6.45977453,8.20053734 C6.22421079,7.96445404 6.10642893,7.68902353 6.10642893,7.36113006 Z"></path>
                                    </g>
                                </g>
                            </g>
                        </g>
                    </g>
                </g>
            </g>
        </g>
    </g>
</svg>