<?xml version="1.0" encoding="UTF-8"?>
<svg width="739px" height="89px" viewBox="0 0 739 89" version="1.1" xmlns="http://www.w3.org/2000/svg" xmlns:xlink="http://www.w3.org/1999/xlink">
    <g id="Page-1" stroke="none" stroke-width="1" fill="none" fill-rule="evenodd">
        <g id="Front-page" transform="translate(-351.000000, -1099.000000)">
            <rect id="Rectangle" stroke="#979797" stroke-width="2" fill="#232425" x="1" y="1" width="1440" height="4580"></rect>
            <g id="referenssit" transform="translate(351.000000, 1099.000000)" fill="#FFFFFF">
                <g id="hero">
                    <g id="Group">
                        <path d="M44.653286,25.9247933 L16.5830469,33.5627158 L13.3438006,21.5267262 L41.4145778,13.8888038 L44.653286,25.9247933 Z M49.408592,43.596584 L43.7962658,45.1231947 L42.2102671,39.2293521 L47.8225934,37.7022003 L49.408592,43.596584 Z M52.5768234,55.3691223 L46.9644971,56.896274 L45.3801124,51.0073 L50.9924387,49.4801483 L52.5768234,55.3691223 Z M55.7477447,67.151939 L50.1354184,68.6785497 L48.5494198,62.785248 L54.161746,61.2580963 L55.7477447,67.151939 Z M38.1817875,46.6508874 L32.5673093,48.1785801 L30.9813106,42.2847374 L36.5957889,40.7570447 L38.1817875,46.6508874 Z M41.3500189,58.4239667 L35.7355406,59.9511184 L34.151156,54.0626854 L39.7650962,52.5349927 L41.3500189,58.4239667 Z M44.5204022,70.2062424 L38.9064619,71.7344761 L37.3204633,65.8406334 L42.9349415,64.3129407 L44.5204022,70.2062424 Z M26.9528311,49.7062728 L21.3383528,51.2339655 L19.7523542,45.3401228 L25.3668324,43.8124301 L26.9528311,49.7062728 Z M30.1210624,61.4793521 L24.5065842,63.0070447 L22.9216615,57.1180708 L28.5361397,55.5903781 L30.1210624,61.4793521 Z M33.2919837,73.2616278 L27.6769675,74.7893204 L26.0915068,68.8960187 L31.7059851,67.368326 L33.2919837,73.2616278 Z M43.8592107,0.583704109 L4.56001509,11.2764709 C1.45957066,12.1198395 -0.345390478,15.4392171 0.529921527,18.6931376 L18.0329337,83.7331388 C18.9082457,86.9876003 22.1318901,88.9377887 25.2317966,88.0949611 L64.5315302,77.4016533 C67.6341266,76.5577437 69.4396257,73.2383662 68.5637757,69.9844457 L51.0613016,4.94390348 C50.1854516,1.69052395 46.9618071,-0.260746414 43.8592107,0.583704109" id="Shape"></path>
                    </g>
                    <polygon id="Path" fill-rule="nonzero" points="75.2779456 64.8235294 87.6193353 81 101 81 82.7477341 56.2823529 99.570997 37 86.5800604 37 68.9773414 56.9941176 68.9773414 37 58 37 58 81 68.9773414 81 68.9773414 72.0705882"></polygon>
                    <path d="M122.9681,36 C109.889043,36 100,46.1355932 100,59 C100,71.8644068 109.889043,82 122.9681,82 C136.110957,82 146,71.8644068 146,59 C146,46.1355932 136.110957,36 122.9681,36 Z M122.9681,71.799435 C115.950069,71.799435 110.909847,65.9519774 110.909847,59 C110.909847,52.0480226 115.950069,46.200565 122.9681,46.200565 C129.98613,46.200565 135.026352,52.0480226 135.026352,59 C135.026352,65.9519774 129.98613,71.799435 122.9681,71.799435 Z" id="Shape" fill-rule="nonzero"></path>
                    <path d="M174.9681,36 C161.889043,36 152,46.1355932 152,59 C152,71.8644068 161.889043,82 174.9681,82 C188.110957,82 198,71.8644068 198,59 C198,46.1355932 188.110957,36 174.9681,36 Z M174.9681,71.799435 C167.950069,71.799435 162.909847,65.9519774 162.909847,59 C162.909847,52.0480226 167.950069,46.200565 174.9681,46.200565 C181.98613,46.200565 187.026352,52.0480226 187.026352,59 C187.026352,65.9519774 181.98613,71.799435 174.9681,71.799435 Z" id="Shape" fill-rule="nonzero"></path>
                    <path d="M205,37 L205,81 L222.953198,81 C236.909516,81 247,71.9411765 247,58.8705882 C247,45.9941176 236.909516,37 222.953198,37 L205,37 Z M216.073323,71.1647059 L216.073323,46.8352941 L222.953198,46.8352941 C230.160686,46.8352941 235.730109,52.0764706 235.730109,58.8705882 C235.730109,65.8588235 230.160686,71.1647059 222.953198,71.1647059 L216.073323,71.1647059 Z" id="Shape" fill-rule="nonzero"></path>
                    <path d="M278.670732,73.4736842 L281.600271,81 L293,81 L274.658537,37 L264.405149,37 L246,81 L257.463415,81 L260.329268,73.4736842 L278.670732,73.4736842 Z M275.104336,64.2105263 L263.895664,64.2105263 L269.5,49.6725146 L275.104336,64.2105263 Z" id="Shape" fill-rule="nonzero"></path>
                    <path d="M315.564103,68.2529412 L324.923077,81 L338,81 L326.782051,66.1176471 C331.974359,63.4647059 335.115385,58.6117647 335.115385,52.4647059 C335.115385,42.9529412 327.871795,37 317.102564,37 L298,37 L298,81 L308.833333,81 L308.833333,68.2529412 L315.564103,68.2529412 Z M308.833333,58.4176471 L308.833333,46.6411765 L316.846154,46.6411765 C321.012821,46.6411765 324.346154,48.9058824 324.346154,52.4647059 C324.346154,56.0882353 321.012821,58.4176471 316.846154,58.4176471 L308.833333,58.4176471 Z" id="Shape" fill-rule="nonzero"></path>
                    <rect id="Rectangle" fill-rule="nonzero" x="343" y="37" width="11" height="44"></rect>
                    <polygon id="Path" fill-rule="nonzero" points="402 37 391.201278 37 391.201278 61.7823529 370.242812 37 362 37 362 81 372.798722 81 372.798722 56.8647059 393.629393 81 402 81"></polygon>
                    <path d="M409,37 L409,81 L420.126335,81 L420.126335,69.8058824 L426.117438,69.8058824 C438.362989,69.8058824 446,63.4 446,53.1117647 C446,43.2117647 438.692171,37 427.039146,37 L409,37 Z M420.126335,60.2294118 L420.126335,46.6411765 L426.775801,46.6411765 C431.713523,46.6411765 434.873665,49.1647059 434.873665,53.1117647 C434.873665,57.4470588 431.713523,60.2294118 426.775801,60.2294118 L420.126335,60.2294118 Z" id="Shape" fill-rule="nonzero"></path>
                    <path d="M475.670732,73.4736842 L478.600271,81 L490,81 L471.658537,37 L461.405149,37 L443,81 L454.463415,81 L457.329268,73.4736842 L475.670732,73.4736842 Z M472.104336,64.2105263 L460.895664,64.2105263 L466.5,49.6725146 L472.104336,64.2105263 Z" id="Shape" fill-rule="nonzero"></path>
                    <polygon id="Path" fill-rule="nonzero" points="528 71.3588235 506.042835 71.3588235 506.042835 37 495 37 495 81 528 81"></polygon>
                    <polygon id="Path" fill-rule="nonzero" points="549.277946 64.8235294 561.619335 81 575 81 556.747734 56.2823529 573.570997 37 560.58006 37 542.977341 56.9941176 542.977341 37 532 37 532 81 542.977341 81 542.977341 72.0705882"></polygon>
                    <polygon id="Path" fill-rule="nonzero" points="596.277946 64.8235294 608.619335 81 622 81 603.747734 56.2823529 620.570997 37 607.58006 37 589.977341 56.9941176 589.977341 37 579 37 579 81 589.977341 81 589.977341 72.0705882"></polygon>
                    <path d="M655.670732,73.4736842 L658.600271,81 L670,81 L651.658537,37 L641.405149,37 L623,81 L634.463415,81 L637.329268,73.4736842 L655.670732,73.4736842 Z M652.104336,64.2105263 L640.895664,64.2105263 L646.5,49.6725146 L652.104336,64.2105263 Z" id="Shape" fill-rule="nonzero"></path>
                    <path d="M679,82 C682.296703,82 685,79.3942857 685,75.9657143 C685,72.6057143 682.296703,70 679,70 C675.703297,70 673,72.6057143 673,75.9657143 C673,79.3942857 675.703297,82 679,82 Z" id="Path" fill-rule="nonzero"></path>
                    <polygon id="Path" fill-rule="nonzero" points="701 46.6411765 723 46.6411765 723 37 690 37 690 81 701 81 701 65.4705882 720.005917 65.4705882 720.005917 55.9588235 701 55.9588235"></polygon>
                    <rect id="Rectangle" fill-rule="nonzero" x="728" y="37" width="11" height="44"></rect>
                </g>
            </g>
        </g>
    </g>
</svg>