<?xml version="1.0" encoding="UTF-8"?>
<svg width="284px" height="76px" viewBox="0 0 284 76" version="1.1" xmlns="http://www.w3.org/2000/svg" xmlns:xlink="http://www.w3.org/1999/xlink">
    <title>logo.1653cf7f</title>
    <g id="Page-1" stroke="none" stroke-width="1" fill="none" fill-rule="evenodd">
        <g id="Front-page" transform="translate(-806.000000, -1244.000000)">
            <rect id="Rectangle" stroke="#979797" stroke-width="2" fill="#232425" x="1" y="1" width="1440" height="4580"></rect>
            <g id="referenssit" transform="translate(351.000000, 1099.000000)" fill="#FFFFFF" fill-rule="nonzero">
                <g id="logo.1653cf7f" transform="translate(455.000000, 145.000000)">
                    <g id="Group" transform="translate(110.000000, 63.000000)">
                        <polygon id="Path" points="0.268 12.012 0.268 1.01 1.571 1.01 1.571 5.778 6.932 5.778 6.932 1.01 8.252 1.01 8.252 12.012 6.932 12.012 6.932 6.916 1.571 6.916 1.571 12.012"></polygon>
                        <path d="M12.015,8.664 C12.015,9.967 12.263,11.154 13.829,11.154 C15.545,11.154 16.073,9.67 16.073,8.217 L16.073,3.796 L17.261,3.796 L17.261,10.08 C17.261,10.724 17.278,11.367 17.344,12.01 L16.239,12.01 L16.206,10.592 C15.629,11.648 14.754,12.193 13.55,12.193 C11.455,12.193 10.812,10.791 10.812,8.879 L10.812,3.798 L12.016,3.798 L12.015,8.664 L12.015,8.664 Z" id="Path"></path>
                        <path d="M19.177,7.872 C19.177,5.514 20.579,3.633 23.02,3.633 C25.593,3.633 26.863,5.447 26.863,7.872 C26.863,10.247 25.56,12.193 23.02,12.193 C22.376,12.193 21.816,12.078 21.337,11.863 C19.902,11.171 19.177,9.67 19.177,7.872 Z M23.02,11.188 C24.818,11.188 25.577,9.457 25.577,7.874 C25.577,6.226 24.868,4.642 23.02,4.642 C21.206,4.642 20.463,6.291 20.463,7.874 C20.463,8.666 20.644,9.49 21.057,10.134 C21.469,10.742 22.113,11.188 23.02,11.188 Z" id="Shape"></path>
                        <polygon id="Path" points="28.763 12.012 28.763 0.119 29.967 0.119 29.967 12.012"></polygon>
                        <path d="M33.085,8.055 C33.085,9.637 33.926,11.221 35.988,11.221 C36.779,11.221 37.636,10.992 38.248,10.594 L38.297,11.666 C37.588,12.012 36.764,12.193 35.988,12.193 C33.15,12.193 31.832,10.33 31.832,7.872 C31.832,5.777 33.035,3.633 35.493,3.633 C38.051,3.633 38.775,5.678 38.775,7.856 L38.775,8.055 L33.085,8.055 Z M37.604,7.162 C37.522,6.041 37.11,4.59 35.509,4.59 C33.944,4.59 33.134,5.992 33.084,7.162 L37.604,7.162 Z" id="Shape"></path>
                        <polygon id="Path" points="40.461 12.012 40.461 0.119 41.665 0.119 41.665 12.012"></polygon>
                        <polygon id="Path" points="44.074 12.012 44.074 0.119 45.277 0.119 45.277 12.012"></polygon>
                        <path d="M47.67,1.967 L47.67,0.531 L48.875,0.531 L48.875,1.967 L47.67,1.967 L47.67,1.967 Z M47.67,12.012 L47.67,3.798 L48.875,3.798 L48.875,12.012 L47.67,12.012 Z" id="Shape"></path>
                        <path d="M50.904,10.691 C51.564,11.039 52.174,11.204 52.916,11.204 C53.84,11.204 54.482,10.759 54.482,9.835 C54.482,7.839 50.937,8.416 50.937,5.909 C50.937,4.26 52.306,3.633 53.591,3.633 C54.269,3.633 54.877,3.766 55.455,3.981 L55.29,5.02 C54.778,4.772 54.185,4.606 53.606,4.606 C52.963,4.606 52.137,4.854 52.137,5.844 C52.137,7.492 55.717,6.983 55.717,9.737 C55.717,11.321 54.381,12.194 52.93,12.194 C52.137,12.194 51.412,12.096 50.752,11.815 L50.904,10.691 Z" id="Path"></path>
                        <path d="M61.546,11.945 C61.133,12.127 60.654,12.193 60.21,12.193 C58.527,12.193 58.313,10.972 58.313,9.472 L58.313,4.738 L56.762,4.738 L56.762,3.798 L58.313,3.798 L58.313,1.95 L59.501,1.538 L59.501,3.798 L61.365,3.798 L61.365,4.738 L59.5,4.738 L59.5,9.785 C59.5,10.512 59.698,11.154 60.557,11.154 C60.887,11.154 61.166,11.072 61.481,10.939 L61.546,11.945 Z" id="Path"></path>
                        <path d="M67.748,12.012 L67.699,10.694 C67.22,11.75 66.181,12.194 65.142,12.194 C63.672,12.194 62.454,11.42 62.454,9.754 C62.454,7.644 64.301,7.017 66.709,7.017 L67.633,7.017 L67.633,6.62 C67.633,5.366 67.154,4.591 65.785,4.591 C64.945,4.591 64.17,4.82 63.46,5.283 L63.361,4.211 C64.07,3.864 65.06,3.634 65.836,3.634 C67.897,3.634 68.82,4.641 68.82,6.702 L68.82,10.265 C68.82,10.874 68.838,11.437 68.92,12.013 L67.748,12.013 L67.748,12.012 L67.748,12.012 Z M67.023,7.889 C65.488,7.889 63.691,8.055 63.691,9.703 C63.691,10.808 64.465,11.221 65.273,11.221 C67.023,11.221 67.631,9.901 67.631,8.383 L67.631,7.889 L67.023,7.889 L67.023,7.889 Z" id="Shape"></path>
                        <path d="M75.703,12.012 L75.703,5.729 C75.703,5.084 75.687,4.442 75.621,3.798 L76.726,3.798 L76.791,5.348 C77.104,4.508 77.961,3.633 78.968,3.633 C79.215,3.633 79.413,3.633 79.66,3.699 L79.595,4.902 C79.38,4.837 79.15,4.804 78.935,4.804 C77.269,4.804 76.908,6.65 76.908,7.937 L76.908,12.011 L75.703,12.011 L75.703,12.012 Z" id="Path"></path>
                        <path d="M85.568,12.012 L85.519,10.694 C85.04,11.75 84,12.194 82.961,12.194 C81.492,12.194 80.273,11.42 80.273,9.754 C80.273,7.644 82.121,7.017 84.529,7.017 L85.453,7.017 L85.453,6.62 C85.453,5.366 84.974,4.591 83.605,4.591 C82.763,4.591 81.988,4.82 81.279,5.283 L81.181,4.211 C81.89,3.864 82.878,3.634 83.654,3.634 C85.717,3.634 86.64,4.641 86.64,6.702 L86.64,10.265 C86.64,10.874 86.656,11.437 86.74,12.013 L85.568,12.013 L85.568,12.012 Z M84.843,7.889 C83.309,7.889 81.512,8.055 81.512,9.703 C81.512,10.808 82.286,11.221 83.094,11.221 C84.843,11.221 85.453,9.901 85.453,8.383 L85.453,7.889 L84.843,7.889 L84.843,7.889 Z" id="Shape"></path>
                        <polygon id="Path" points="89.051 12.012 89.051 0.119 90.256 0.119 90.256 7.195 93.736 3.798 95.236 3.798 91.459 7.427 95.682 12.012 94.1 12.012 90.256 7.725 90.256 12.012 89.051 12.012"></polygon>
                        <path d="M97.68,8.055 C97.68,9.637 98.522,11.221 100.584,11.221 C101.375,11.221 102.232,10.992 102.844,10.594 L102.893,11.666 C102.184,12.012 101.36,12.193 100.584,12.193 C97.746,12.193 96.427,10.33 96.427,7.872 C96.427,5.777 97.631,3.633 100.088,3.633 C102.647,3.633 103.371,5.678 103.371,7.856 L103.371,8.055 L97.68,8.055 Z M102.199,7.162 C102.117,6.041 101.705,4.59 100.105,4.59 C98.538,4.59 97.73,5.992 97.679,7.162 L102.199,7.162 Z" id="Shape"></path>
                        <path d="M105.057,12.012 L105.057,5.729 C105.057,5.084 105.039,4.442 104.975,3.798 L106.079,3.798 L106.13,5.217 C106.706,4.16 107.597,3.633 108.785,3.633 C110.895,3.633 111.54,5.02 111.54,6.916 L111.54,12.012 L110.352,12.012 L110.352,7.147 C110.352,5.844 110.086,4.658 108.503,4.658 C106.787,4.658 106.259,6.141 106.259,7.594 L106.259,12.015 L105.057,12.015 L105.057,12.012 L105.057,12.012 Z" id="Path"></path>
                        <path d="M117.809,11.945 C117.397,12.127 116.918,12.193 116.473,12.193 C114.791,12.193 114.577,10.972 114.577,9.472 L114.577,4.738 L113.025,4.738 L113.025,3.798 L114.577,3.798 L114.577,1.95 L115.765,1.538 L115.765,3.798 L117.627,3.798 L117.627,4.738 L115.765,4.738 L115.765,9.785 C115.765,10.512 115.961,11.154 116.82,11.154 C117.15,11.154 117.431,11.072 117.745,10.939 L117.809,11.945 Z" id="Path"></path>
                        <path d="M124.012,12.012 L123.963,10.694 C123.484,11.75 122.445,12.194 121.406,12.194 C119.937,12.194 118.718,11.42 118.718,9.754 C118.718,7.644 120.565,7.017 122.973,7.017 L123.897,7.017 L123.897,6.62 C123.897,5.366 123.418,4.591 122.049,4.591 C121.209,4.591 120.434,4.82 119.725,5.283 L119.625,4.211 C120.334,3.864 121.324,3.634 122.1,3.634 C124.162,3.634 125.084,4.641 125.084,6.702 L125.084,10.265 C125.084,10.874 125.102,11.437 125.184,12.013 L124.012,12.013 L124.012,12.012 Z M123.287,7.889 C121.752,7.889 119.955,8.055 119.955,9.703 C119.955,10.808 120.73,11.221 121.538,11.221 C123.287,11.221 123.896,9.901 123.896,8.383 L123.896,7.889 L123.287,7.889 L123.287,7.889 Z" id="Shape"></path>
                        <path d="M127.495,12.012 L127.495,5.729 C127.495,5.084 127.478,4.442 127.412,3.798 L128.517,3.798 L128.566,5.217 C129.111,4.16 129.935,3.633 131.025,3.633 C132.394,3.633 133.185,4.49 133.416,5.348 C133.812,4.327 134.852,3.633 135.907,3.633 C137.573,3.633 138.465,4.837 138.465,6.42 L138.465,12.012 L137.26,12.012 L137.26,6.635 C137.26,5.53 136.864,4.656 135.627,4.656 C134.126,4.656 133.582,6.14 133.582,7.575 L133.582,12.012 L132.377,12.012 L132.377,6.635 C132.377,5.53 131.998,4.656 130.762,4.656 C129.244,4.656 128.699,6.14 128.699,7.575 L128.699,12.012 L127.495,12.012 L127.495,12.012 Z" id="Path"></path>
                        <path d="M140.859,1.967 L140.859,0.531 L142.064,0.531 L142.064,1.967 L140.859,1.967 L140.859,1.967 Z M140.859,12.012 L140.859,3.798 L142.064,3.798 L142.064,12.012 L140.859,12.012 Z" id="Shape"></path>
                        <path d="M144.094,10.691 C144.754,11.039 145.364,11.204 146.106,11.204 C147.03,11.204 147.673,10.759 147.673,9.835 C147.673,7.839 144.127,8.416 144.127,5.909 C144.127,4.26 145.496,3.633 146.782,3.633 C147.459,3.633 148.068,3.766 148.646,3.981 L148.48,5.02 C147.968,4.772 147.376,4.606 146.797,4.606 C146.153,4.606 145.328,4.854 145.328,5.844 C145.328,7.492 148.908,6.983 148.908,9.737 C148.908,11.321 147.571,12.194 146.121,12.194 C145.328,12.194 144.602,12.096 143.942,11.815 L144.094,10.691 Z" id="Path"></path>
                        <path d="M154.734,11.945 C154.322,12.127 153.842,12.193 153.398,12.193 C151.713,12.193 151.502,10.972 151.502,9.472 L151.502,4.738 L149.951,4.738 L149.951,3.798 L151.502,3.798 L151.502,1.95 L152.69,1.538 L152.69,3.798 L154.553,3.798 L154.553,4.738 L152.69,4.738 L152.69,9.785 C152.69,10.512 152.887,11.154 153.746,11.154 C154.076,11.154 154.356,11.072 154.67,10.939 L154.734,11.945 Z" id="Path"></path>
                        <path d="M160.938,12.012 L160.889,10.694 C160.41,11.75 159.371,12.194 158.332,12.194 C156.863,12.194 155.643,11.42 155.643,9.754 C155.643,7.644 157.492,7.017 159.899,7.017 L160.824,7.017 L160.824,6.62 C160.824,5.366 160.345,4.591 158.975,4.591 C158.135,4.591 157.36,4.82 156.651,5.283 L156.551,4.211 C157.26,3.864 158.25,3.634 159.026,3.634 C161.088,3.634 162.01,4.641 162.01,6.702 L162.01,10.265 C162.01,10.874 162.028,11.437 162.11,12.013 L160.938,12.013 L160.938,12.012 Z M160.213,7.889 C158.678,7.889 156.881,8.055 156.881,9.703 C156.881,10.808 157.656,11.221 158.465,11.221 C160.213,11.221 160.822,9.901 160.822,8.383 L160.822,7.889 L160.213,7.889 L160.213,7.889 Z" id="Shape"></path>
                        <polygon id="Path" points="164.752 12.012 164.752 10.544 166.17 10.544 166.17 12.012"></polygon>
                    </g>
                    <path d="M90.195,22.358 C88.482,19.598 86.066,17.329 83.178,15.775 C80.242,14.19 76.975,13.369 73.628,13.369 L49.062,13.369 C49.011,13.369 48.958,13.346 48.924,13.309 C48.887,13.278 48.869,13.23 48.869,13.185 L48.869,0.08 L48.66,0.08 C46.173,0.08 43.787,1.043 42.029,2.77 C40.265,4.495 39.277,6.83 39.277,9.272 L39.277,13.185 C39.277,13.23 39.258,13.278 39.226,13.309 C39.187,13.345 39.136,13.369 39.086,13.369 L11.547,13.369 C7.518,13.369 3.696,15.471 1.678,18.891 C0.671,20.598 0.166,22.511 0.166,24.419 C0.166,26.329 0.671,28.238 1.678,29.949 C3.697,33.369 7.42,35.474 11.449,35.474 L24.417,35.471 C25.176,35.471 25.878,35.872 26.243,36.522 C26.42,36.824 26.506,37.168 26.506,37.513 C26.506,37.886 26.405,38.257 26.201,38.588 C25.815,39.185 25.142,39.555 24.417,39.555 L0.359,39.555 L0.41,39.807 C1.515,44.916 6.12,48.566 11.449,48.566 L24.417,48.566 C28.446,48.566 32.17,46.462 34.185,43.043 C35.193,41.331 35.701,39.423 35.701,37.514 C35.701,35.606 35.193,33.697 34.185,31.989 C32.171,28.569 28.447,26.464 24.417,26.464 L11.449,26.464 C10.686,26.464 9.99,26.063 9.624,25.417 C9.442,25.104 9.356,24.766 9.356,24.421 C9.356,24.052 9.46,23.677 9.666,23.351 C10.048,22.745 10.721,22.38 11.445,22.38 C11.468,22.38 11.501,22.38 11.535,22.384 L39.084,22.384 C39.134,22.384 39.186,22.403 39.216,22.439 C39.26,22.474 39.275,22.518 39.275,22.57 L39.275,40.35 C39.275,43.745 41.185,46.866 44.237,48.461 C45.618,49.182 47.143,49.543 48.658,49.543 C50.48,49.543 52.301,49.023 53.872,47.997 C53.982,47.923 54.057,47.8 54.057,47.661 L54.057,39.635 L53.721,39.891 C53.178,40.31 52.519,40.532 51.851,40.532 C51.412,40.532 50.97,40.437 50.557,40.244 C49.524,39.757 48.866,38.734 48.866,37.616 L48.866,22.567 C48.866,22.515 48.881,22.471 48.921,22.44 C48.956,22.4 49.008,22.381 49.059,22.381 L57,22.381 C55.324,25.097 54.441,28.197 54.441,31.373 C54.448,34.55 55.339,37.654 57.02,40.37 C58.733,43.126 61.152,45.394 64.041,46.945 C66.978,48.531 70.274,49.349 73.629,49.349 C76.976,49.349 80.25,48.523 83.186,46.939 C86.076,45.382 88.492,43.111 90.199,40.353 C91.879,37.634 92.77,34.557 92.77,31.378 C92.769,28.201 91.875,25.073 90.195,22.358 M78.279,39.032 C76.842,39.81 75.26,40.212 73.628,40.212 C71.998,40.212 70.384,39.811 68.946,39.032 C67.549,38.275 66.372,37.167 65.538,35.808 C64.723,34.49 64.295,32.97 64.291,31.415 C64.295,29.861 64.723,28.343 65.538,27.019 C66.371,25.666 67.548,24.558 68.946,23.801 C70.384,23.021 71.997,22.621 73.628,22.621 C75.26,22.621 76.842,23.02 78.279,23.801 C79.674,24.558 80.851,25.666 81.687,27.025 C82.501,28.343 82.931,29.862 82.935,31.416 C82.932,32.971 82.502,34.49 81.687,35.812 C80.851,37.167 79.674,38.275 78.279,39.032 Z" id="Shape"></path>
                    <rect id="Rectangle" x="110.256" y="13.4" width="173.374" height="35.219"></rect>
                </g>
            </g>
        </g>
    </g>
</svg>