<?xml version="1.0" encoding="UTF-8"?>
<svg width="297px" height="63px" viewBox="0 0 297 63" version="1.1" xmlns="http://www.w3.org/2000/svg" xmlns:xlink="http://www.w3.org/1999/xlink">
    <g id="Page-1" stroke="none" stroke-width="1" fill="none" fill-rule="evenodd">
        <g id="Front-page" transform="translate(-793.000000, -1373.000000)">
            <rect id="Rectangle" stroke="#979797" stroke-width="2" fill="#232425" x="1" y="1" width="1440" height="4580"></rect>
            <g id="referenssit" transform="translate(351.000000, 1099.000000)" fill="#FFFFFF" fill-rule="nonzero">
                <path d="M455.866667,299 L455.866667,296.333333 L452.533333,296.333333 L452.533333,276.666667 L457.466667,276.666667 L457.466667,280.533333 L460,280.533333 L460,274 L442,274 L442,280.533333 L444.533333,280.533333 L444.533333,276.666667 L449.466667,276.666667 L449.466667,296.333333 L446.133333,296.333333 L446.133333,299 L455.866667,299 Z M467.100478,299 L467.100478,296.292308 L464.856459,296.292308 L466.296651,292.095385 L474.669856,292.095385 L476.110048,296.292308 L473.899522,296.292308 L473.899522,299 L481,299 L481,296.292308 L479.191388,296.292308 L473.5311,279.707692 L474.971292,279.707692 L474.971292,277 L466.028708,277 L466.028708,279.707692 L467.435407,279.707692 L461.77512,296.292308 L460,296.292308 L460,299 L467.100478,299 Z M474,290 L467,290 L470.5,280 L474,290 Z M491.6743,299 L491.6743,296.292308 L489.358779,296.292308 L489.358779,280.824615 L495.544529,296.292308 L498.455471,296.292308 L504.641221,280.824615 L504.641221,296.292308 L502.3257,296.292308 L502.3257,299 L510,299 L510,296.292308 L507.684478,296.292308 L507.684478,279.707692 L510,279.707692 L510,277 L503.251908,277 L497,293.009231 L490.748092,277 L484,277 L484,279.707692 L486.315522,279.707692 L486.315522,296.292308 L484,296.292308 L484,299 L491.6743,299 Z M524.162698,299 L524.162698,296.292308 L521.464286,296.292308 L521.464286,291.553846 L529.492063,291.553846 L533,287.830769 L533,280.723077 L529.492063,277 L516,277 L516,279.707692 L518.361111,279.707692 L518.361111,296.292308 L516,296.292308 L516,299 L524.162698,299 Z M527.960938,289 L521,289 L521,280 L527.996094,280 L530,282.05814 L530,286.94186 L527.960938,289 Z M553,299 L553,292.366154 L550.310924,292.366154 L550.310924,296.292308 L542.445378,296.292308 L542.445378,289.353846 L550.310924,289.353846 L550.310924,286.646154 L542.445378,286.646154 L542.445378,279.707692 L550.310924,279.707692 L550.310924,283.633846 L553,283.633846 L553,277 L537,277 L537,279.707692 L539.352941,279.707692 L539.352941,296.292308 L537,296.292308 L537,299 L553,299 Z M565.278689,299 L565.278689,296.292308 L563.311475,296.292308 L563.311475,291.215385 L568.131148,291.215385 L571.081967,296.292308 L570.163934,296.292308 L570.163934,299 L576,299 L576,296.292308 L574.262295,296.292308 L571.213115,291.08 L574.52459,287.492308 L574.52459,280.723077 L571.114754,277 L558,277 L558,279.707692 L560.295082,279.707692 L560.295082,296.292308 L558,296.292308 L558,299 L565.278689,299 Z M569.960938,288 L563,288 L563,280 L569.996094,280 L572,281.903226 L572,286.096774 L569.960938,288 Z M598,299 L598,292.366154 L595.310924,292.366154 L595.310924,296.292308 L587.445378,296.292308 L587.445378,289.353846 L595.310924,289.353846 L595.310924,286.646154 L587.445378,286.646154 L587.445378,279.707692 L595.310924,279.707692 L595.310924,283.633846 L598,283.633846 L598,277 L582,277 L582,279.707692 L584.352941,279.707692 L584.352941,296.292308 L582,296.292308 L582,299 L598,299 Z M629.467925,299 L633,295.333333 L633,277.666667 L629.467925,274 L615,274 L615,276.666667 L617.377358,276.666667 L617.377358,296.333333 L615,296.333333 L615,299 L629.467925,299 Z M627.304348,296 L620,296 L620,277 L627.336957,277 L629,278.742215 L629,294.257785 L627.304348,296 Z M654,299 L654,292.366154 L651.310924,292.366154 L651.310924,296.292308 L643.445378,296.292308 L643.445378,289.353846 L651.310924,289.353846 L651.310924,286.646154 L643.445378,286.646154 L643.445378,279.707692 L651.310924,279.707692 L651.310924,283.633846 L654,283.633846 L654,277 L638,277 L638,279.707692 L640.352941,279.707692 L640.352941,296.292308 L638,296.292308 L638,299 L654,299 Z M673.427481,299 L677,295.276923 L677,289.996923 L674.458015,287.390769 L676.312977,285.461538 L676.312977,280.723077 L672.740458,277 L659,277 L659,279.707692 L661.40458,279.707692 L661.40458,296.292308 L659,296.292308 L659,299 L673.427481,299 Z M671.960938,286 L665,286 L665,280 L671.996094,280 L674,281.882979 L674,284.117021 L671.960938,286 Z M672.108696,296 L665,296 L665,289 L671.945652,289 L674,291.166667 L674,294.033333 L672.108696,296 Z M687.100478,299 L687.100478,296.292308 L684.856459,296.292308 L686.296651,292.095385 L694.669856,292.095385 L696.110048,296.292308 L693.899522,296.292308 L693.899522,299 L701,299 L701,296.292308 L699.191388,296.292308 L693.5311,279.707692 L694.971292,279.707692 L694.971292,277 L686.028708,277 L686.028708,279.707692 L687.435407,279.707692 L681.77512,296.292308 L680,296.292308 L680,299 L687.100478,299 Z M694,290 L687,290 L690.5,280 L694,290 Z M715.273077,299 L715.273077,296.292308 L712.003846,296.292308 L712.003846,279.707692 L716.515385,279.707692 L716.515385,283.633846 L719,283.633846 L719,277 L702,277 L702,283.633846 L704.484615,283.633846 L704.484615,279.707692 L708.996154,279.707692 L708.996154,296.292308 L705.726923,296.292308 L705.726923,299 L715.273077,299 Z M739,299 L739,292.366154 L736.310924,292.366154 L736.310924,296.292308 L728.445378,296.292308 L728.445378,289.353846 L736.310924,289.353846 L736.310924,286.646154 L728.445378,286.646154 L728.445378,279.707692 L736.310924,279.707692 L736.310924,283.633846 L739,283.633846 L739,277 L723,277 L723,279.707692 L725.352941,279.707692 L725.352941,296.292308 L723,296.292308 L723,299 L739,299 Z M536.608696,337 L540,333.333333 L540,326.433333 L536.706522,322.9 L529.923913,322.9 L528.326087,321.233333 L528.326087,316.633333 L530.021739,314.866667 L535.01087,314.866667 L536.967391,316.933333 L536.967391,319.866667 L539.673913,319.866667 L539.673913,315.666667 L536.282609,312 L528.717391,312 L525.326087,315.666667 L525.326087,322.2 L528.652174,325.766667 L535.434783,325.766667 L537,327.4 L537,332.366667 L535.336957,334.133333 L529.695652,334.133333 L527.706522,332.066667 L527.706522,329.133333 L525,329.133333 L525,333.333333 L528.391304,337 L536.608696,337 Z M558.604082,337 L562,333.276923 L562,318.723077 L558.604082,315 L549.395918,315 L546,318.723077 L546,333.276923 L549.395918,337 L558.604082,337 Z M557.300654,334 L550.666667,334 L549,332.225941 L549,319.774059 L550.699346,318 L557.333333,318 L559,319.774059 L559,332.225941 L557.300654,334 Z M579.608696,337 L583,333.276923 L583,329.012308 L580.391304,329.012308 L580.391304,331.889231 L578.304348,334.089231 L572.663043,334.089231 L571,332.295385 L571,319.704615 L572.695652,317.910769 L578.336957,317.910769 L580.391304,320.110769 L580.391304,322.987692 L583,322.987692 L583,318.723077 L579.608696,315 L571.391304,315 L568,318.723077 L568,333.276923 L571.391304,337 L579.608696,337 Z M596,337 L596,334.292308 L593.460317,334.292308 L593.460317,317.707692 L596,317.707692 L596,315 L588,315 L588,317.707692 L590.539683,317.707692 L590.539683,334.292308 L588,334.292308 L588,337 L596,337 Z M617,337 L617,330.366154 L614.310924,330.366154 L614.310924,334.292308 L606.445378,334.292308 L606.445378,327.353846 L614.310924,327.353846 L614.310924,324.646154 L606.445378,324.646154 L606.445378,317.707692 L614.310924,317.707692 L614.310924,321.633846 L617,321.633846 L617,315 L601,315 L601,317.707692 L603.352941,317.707692 L603.352941,334.292308 L601,334.292308 L601,337 L617,337 Z M634.273077,337 L634.273077,334.292308 L631.003846,334.292308 L631.003846,317.707692 L635.515385,317.707692 L635.515385,321.633846 L638,321.633846 L638,315 L621,315 L621,321.633846 L623.484615,321.633846 L623.484615,317.707692 L627.996154,317.707692 L627.996154,334.292308 L624.726923,334.292308 L624.726923,337 L634.273077,337 Z M654.074074,337 L654.074074,334.292308 L651.058201,334.292308 L651.058201,330.027692 L656.855379,317.707692 L659,317.707692 L659,315 L651.895944,315 L651.895944,317.707692 L653.906526,317.707692 L649.483245,327.083077 L645.093474,317.707692 L647.104056,317.707692 L647.104056,315 L640,315 L640,317.707692 L642.144621,317.707692 L647.975309,330.095385 L647.975309,334.292308 L644.959436,334.292308 L644.959436,337 L654.074074,337 Z" id="TampereDebateSociety"></path>
            </g>
        </g>
    </g>
</svg>