<?xml version="1.0" encoding="UTF-8"?>
<svg width="178px" height="89px" viewBox="0 0 178 89" version="1.1" xmlns="http://www.w3.org/2000/svg" xmlns:xlink="http://www.w3.org/1999/xlink">
    <title>logo-whitebg</title>
    <g id="Page-1" stroke="none" stroke-width="1" fill="none" fill-rule="evenodd">
        <g id="Front-page" transform="translate(-416.000000, -1497.000000)">
            <rect id="Rectangle" stroke="#979797" stroke-width="2" fill="#232425" x="1" y="1" width="1440" height="4580"></rect>
            <g id="referenssit" transform="translate(351.000000, 1099.000000)">
                <g id="logo-whitebg" transform="translate(65.000000, 398.000000)">
                    <ellipse id="Oval" cx="88.5" cy="44.5" rx="87.5" ry="43.5"></ellipse>
                    <path d="M76,36.4456522 C76,35.0869565 77.1538462,34 78.5274725,34 C79.8461538,34 81,35.1413043 81,36.5 C81,37.8586957 79.8461538,39 78.4725275,39 C77.0989011,38.9456522 76,37.8586957 76,36.4456522" id="Path" fill="#FFFFFF" fill-rule="nonzero"></path>
                    <path d="M80.5974026,40 L80.5974026,52.8 C80.5974026,53.3714286 80.6558442,53.8857143 80.7727273,54.4571429 C80.8896104,55.0857143 81.2402597,55.3142857 81.8246753,55.4285714 C81.9415584,55.4285714 82,55.4857143 82,55.6 C82,55.7142857 82,55.8857143 82,56 L73.8181818,56 L73.8181818,55.4285714 C73.8766234,55.4285714 73.8766234,55.4285714 73.9350649,55.4285714 C74.8116883,55.3142857 75.1623377,54.9714286 75.2792208,54.1142857 C75.3376623,53.4285714 75.3961039,52.7428571 75.3961039,52 C75.3961039,49.9428571 75.3961039,47.8285714 75.3961039,45.7714286 C75.3961039,45.3714286 75.3376623,44.9142857 75.3376623,44.5142857 C75.2792208,43.8285714 74.8701299,43.4285714 74.2272727,43.2 C73.8181818,43.0857143 73.4090909,42.9714286 73,42.8571429 C75.3376623,41.3142857 77.7922078,40.2857143 80.5974026,40" id="Path" fill="#FFFFFF" fill-rule="nonzero"></path>
                    <path d="M135.432258,33.0065973 L135.432258,51.4788887 C135.432258,52.12894 135.490323,52.7789914 135.606452,53.3748717 C135.722581,54.024923 136.129032,54.2957777 136.883871,54.4041196 C136.941935,54.4041196 136.941935,54.4041196 137,54.4041196 L137,55 L128.580645,55 L128.580645,54.9458291 C128.522581,54.4582906 128.522581,54.4582906 129.045161,54.3499487 C129.858065,54.2416068 130.206452,53.8624102 130.322581,53.158188 C130.380645,52.7248204 130.43871,52.2372819 130.43871,51.8039144 C130.43871,47.1452133 130.43871,42.4323413 130.43871,37.7736402 C130.43871,37.5569565 130.43871,37.2861018 130.380645,37.069418 C130.206452,36.2568538 129.625806,35.8234863 128.870968,35.5526316 C128.580645,35.4442897 128.290323,35.3901188 128,35.2817769 C129.509677,34.1441871 132.703226,32.8982554 135.432258,33.0065973" id="Path" fill="#FFFFFF" fill-rule="nonzero"></path>
                    <path d="M84.0234544,56 C83.7944612,54.1496599 85.2829168,51.085034 86.714124,50.2755102 C86.714124,50.5068027 86.714124,50.7380952 86.7713723,51.0272109 C86.8286206,51.8367347 87.1721104,52.4727891 87.687345,53.0510204 C88.8323108,54.3231293 90.2635181,54.7278912 91.9237185,54.6122449 C92.6679463,54.5544218 93.3549258,54.3231293 93.984657,53.8605442 C95.4158643,52.7619048 95.358616,50.622449 93.9274087,49.5238095 C93.3549258,49.0612245 92.6679463,48.829932 91.9809668,48.5986395 C90.7787527,48.2517007 89.5765386,47.9047619 88.3170762,47.5 C87.5728484,47.2687075 86.8858689,46.9217687 86.2561377,46.4013605 C85.3401651,45.5918367 84.9966753,44.2619048 85.4546616,43.1054422 C85.912648,41.9489796 86.7713723,41.1972789 87.8018416,40.6190476 C89.2902971,39.8095238 90.836001,39.5204082 92.4962015,39.6360544 C93.6984156,39.7517007 94.9006297,39.8095238 96.1600921,39.8095238 C97.0760648,39.8095238 97.9920374,39.6360544 98.7935135,39.0578231 C98.7935135,39.0578231 98.8507618,39.0578231 98.9080101,39 C98.9080101,39.2312925 98.8507618,39.4047619 98.8507618,39.5782313 C98.7362652,40.4455782 98.507272,41.3129252 97.9347891,42.0068027 C97.7630443,42.2380952 97.4768028,42.4115646 97.2478096,42.585034 C97.0188165,42.7585034 96.732575,42.7585034 96.4463336,42.585034 C95.9883472,42.2959184 95.4731126,41.9489796 95.0151263,41.6020408 C94.4426434,41.1972789 93.9274087,40.792517 93.2404292,40.6768707 C92.4962015,40.5034014 91.7519737,40.5612245 91.0649942,40.9659864 C90.2062698,41.5442177 89.9772766,42.5272109 90.435263,43.452381 C90.7787527,44.0306122 91.2939873,44.4931973 91.9237185,44.6666667 C92.8396912,44.9557823 93.7556639,45.244898 94.6716365,45.4761905 C95.9310989,45.8231293 97.1905613,46.2278912 98.2782789,46.9795918 C99.5377413,47.8469388 100.052976,49.1190476 99.9957276,50.622449 C99.9384793,52.2993197 99.1370032,53.4557823 97.7630443,54.3231293 C95.9310989,55.537415 93.8701604,55.8843537 91.6947254,55.5952381 C90.7215044,55.4795918 89.6910352,55.3061224 88.7178142,55.1326531 C87.5728484,54.9591837 86.4278826,55.0748299 85.3401651,55.4795918 C84.9966753,55.6530612 84.538689,55.8265306 84.0234544,56" id="Path" fill="#FFFFFF" fill-rule="nonzero"></path>
                    <path d="M101.859155,36.8693227 C103.71831,35.986587 105.746479,35.4154051 107.830986,35 L107.830986,41.1272245 L111.661972,41.1272245 L111.661972,42.7888447 L107.830986,42.7888447 L107.830986,50.0584331 C107.830986,50.5257638 107.887324,50.9930945 107.887324,51.4604252 C107.943662,52.187384 108.676056,52.758566 109.464789,52.8624172 C110.253521,52.9662685 111.042254,52.8104916 111.71831,52.4470122 C111.774648,52.3950866 111.887324,52.3431609 112,52.2912353 C111.71831,53.8490042 110.873239,54.9913681 109.239437,55.6144757 C108,56.0818064 106.704225,56.133732 105.408451,55.718327 C104.112676,55.3029219 103.323944,54.4201862 103.15493,53.1220454 C103.098592,52.4989378 103.042254,51.9277559 103.042254,51.3046483 L103.042254,42.7888447 L100,42.7888447 L100,41.1272245 L103.042254,41.1272245 C103.042254,40.4521913 103.042254,39.7771581 103.042254,39.1021249 C103.042254,38.946348 103.042254,38.7905711 102.985915,38.6347942 C102.929577,37.959761 102.535211,37.4924303 101.971831,37.0770253 C101.915493,37.0770253 101.915493,37.0250996 101.859155,36.973174 C101.915493,36.9212484 101.915493,36.9212484 101.859155,36.8693227" id="Path" fill="#FFFFFF" fill-rule="nonzero"></path>
                    <path d="M121.938879,45.8202783 C120.394144,46.2328693 118.84941,45.7613368 118.105649,44.4646222 C117.476312,43.2857909 117.590737,41.6354269 118.448923,40.5744787 C119.192684,39.6314136 120.222507,39.1598811 121.366755,39.0419979 C123.426401,38.8062316 125.199985,39.572472 126.573083,41.1049528 C128.403879,43.0500246 129.14764,45.4076873 128.976003,48.1189995 C128.861578,49.828305 128.346667,51.4197274 127.316844,52.7753834 C126.401445,54.0131564 125.257198,54.8972799 123.8841,55.427754 C122.568215,55.9582282 121.25233,56.0761113 119.879233,55.9582282 C117.590737,55.6635203 115.75994,54.6025721 114.386843,52.6575003 C113.643082,51.6554936 113.242595,50.4766623 113.070958,49.1799477 C112.727684,46.4686356 113.643082,44.1699144 115.531091,42.2837842 C116.21764,41.5764854 117.018613,41.0460113 117.934011,40.5744787 C117.762374,40.9870697 117.590737,41.3996607 117.476312,41.7533101 C116.675339,43.6983819 116.560914,45.6434536 117.247463,47.647467 C117.762374,49.1799477 118.734985,50.4177207 120.222507,51.1250195 C122.396578,52.1859678 125.028348,51.6554936 126.51587,49.5925387 C127.831755,47.7653501 127.660118,45.1719211 126.000959,43.6983819 C125.08556,42.8731999 123.998525,42.5195505 122.797065,42.7553167 C122.396578,42.8142583 121.996091,42.991083 121.652817,43.1679077 C120.680206,43.7573234 120.680206,44.9361548 121.538392,45.6434536 C121.710029,45.7023952 121.824454,45.7613368 121.938879,45.8202783" id="Path" fill="#FFFFFF" fill-rule="nonzero"></path>
                    <path d="M148.219686,47.006765 C146.863623,47.2332987 145.625479,47.5730993 144.623171,48.4226007 C143.620864,49.2721022 143.14919,50.2915039 143.326068,51.5940728 C143.443986,52.670108 144.328375,53.5762429 145.448601,53.8027766 C146.33299,53.9726769 147.158419,53.8027766 147.983849,53.462976 C148.219686,53.3497091 148.278645,53.2930757 148.278645,53.066542 C148.278645,51.1410054 148.278645,49.2154687 148.278645,47.2899321 L148.278645,47.006765 L148.219686,47.006765 Z M155,55.7849466 L154.705204,55.7849466 C152.936426,55.7849466 151.167648,55.7849466 149.398871,55.7849466 C149.221993,55.7849466 149.104075,55.7283132 148.986156,55.6150463 C148.632401,55.2752458 148.455523,54.8788117 148.278645,54.4257443 C148.219686,54.3124774 148.219686,54.1992106 148.160726,54.0293103 C147.983849,54.1425772 147.86593,54.255844 147.689052,54.3691109 C146.568827,55.2186123 145.330682,55.7849466 143.91566,55.9548469 C142.146883,56.1247472 140.496023,55.8415801 139.19892,54.652278 C138.314531,53.85941 137.901816,52.8400083 138.019735,51.6507062 C138.137653,50.1782371 138.963083,49.1588353 140.083309,48.3093339 C141.380412,47.403199 142.795434,46.8934981 144.387334,46.610331 C145.566519,46.4404307 146.745704,46.3837972 147.924889,46.4404307 C147.983849,46.4404307 148.101767,46.4404307 148.160726,46.4404307 L148.160726,43.7786595 C148.160726,43.0990583 147.983849,42.4194571 147.453215,41.9097563 C146.686745,41.1735217 145.330682,41.1168882 144.505253,41.8531228 C144.033579,42.2495568 143.679823,42.7592577 143.267108,43.2123252 C142.854394,43.6087592 142.500638,44.0618266 142.087923,44.4016272 C141.203534,45.0245949 140.083309,44.9113281 139.316838,44.0618266 C138.609327,43.325592 138.255572,42.4760906 138.196612,41.5133222 C138.137653,41.1168882 138.196612,40.7204542 138.196612,40.2673868 C138.550368,40.4372871 138.845164,40.6071874 139.19892,40.7204542 C140.142268,41.0602548 141.144575,41.0602548 142.146883,40.7770877 C143.326068,40.4939205 144.446293,40.1541199 145.684438,40.0408531 C147.040501,39.9275862 148.337604,40.0408531 149.634708,40.4939205 C150.401178,40.7770877 151.167648,41.1168882 151.8162,41.5699557 C152.700589,42.2495568 153.231222,43.0990583 153.290182,44.2317269 C153.290182,44.6847943 153.290182,45.1378618 153.290182,45.6475626 C153.290182,47.8562664 153.290182,50.0649702 153.349141,52.2170405 C153.349141,52.9532751 153.467059,53.7461431 153.820815,54.4257443 C154.056652,54.8788117 154.410407,55.1619789 154.764163,55.5017795 C154.823122,55.6716798 154.882081,55.7283132 155,55.7849466" id="Shape" fill="#FFFFFF" fill-rule="nonzero"></path>
                    <path d="M56.1391019,41.6748252 C56.4771595,41.3776224 56.7588742,41.0804196 57.0969319,40.7832168 C57.7167043,40.2482517 58.3364767,39.6538462 58.956249,39.1188811 C59.012592,39.0594406 59.1252779,39.0594406 59.1816208,39.0594406 C59.8013932,39.4160839 60.3648226,39.8321678 60.8155662,40.486014 C61.3226526,41.1993007 61.4353385,42.0314685 61.2099668,42.8636364 C60.984595,43.7552448 60.7028803,44.6468531 60.4775085,45.5384615 C60.1957938,46.4300699 59.9140791,47.2622378 59.7450502,48.2132867 C59.4633355,50.1748252 60.5901944,51.8986014 62.3931686,52.3146853 C63.6327133,52.6118881 64.8159151,52.4335664 65.942774,51.8391608 C66.2244887,51.7202797 66.2808317,51.541958 66.2808317,51.2447552 C66.2808317,49.1048951 66.2808317,47.0244755 66.2808317,44.8846154 C66.2808317,44.4090909 66.2244887,43.9335664 66.1681458,43.458042 C66.1118028,42.9825175 65.7737452,42.6258741 65.3230016,42.4475524 C64.928601,42.2692308 64.5342004,42.1503497 64.0834569,42.0314685 C64.0271139,42.0314685 64.0271139,42.0314685 63.914428,41.972028 C64.3088286,41.6748252 64.6468863,41.3776224 65.0412869,41.1398601 C66.3371746,40.3076923 67.7457482,39.7727273 69.2670076,39.4160839 C69.8304371,39.2972028 70.4502095,39.1783217 71.0699818,39 L71.0699818,51.8391608 C71.0699818,52.4335664 71.1263248,53.0874126 71.2390107,53.6818182 C71.4080395,54.5734266 71.8024401,54.9300699 72.7039272,54.9895105 C72.929299,54.9895105 73.0419848,55.1083916 72.9856419,55.3461538 C72.9856419,55.465035 72.9856419,55.5244755 72.9856419,55.6433566 L66.3371746,55.6433566 L66.3371746,52.3741259 C65.8300881,52.6713287 65.4356875,52.9685315 64.984944,53.2657343 C63.6327133,54.1573427 62.2804827,55.048951 60.984595,55.9405594 C60.8719091,56 60.7592232,56 60.5901944,56 C59.6323643,55.9405594 58.7308773,55.7027972 57.8293902,55.3461538 C56.1391019,54.6328671 55.1249289,53.027972 55.012243,51.1258741 C54.8995571,49.4020979 55.5756724,48.034965 56.5898454,46.7867133 C57.0969319,46.1923077 57.6040184,45.5979021 58.0547619,44.9440559 C58.2237908,44.7062937 58.3928196,44.3496503 58.5055055,44.0524476 C58.7872202,43.1608392 58.4491625,42.4475524 57.6603613,42.0314685 C57.2659607,41.8531469 56.8715601,41.7342657 56.4208166,41.6153846 C56.3081307,41.7342657 56.2517877,41.7342657 56.1391019,41.6748252" id="Path" fill="#FFFFFF" fill-rule="nonzero"></path>
                    <path d="M35.6845361,33 C35.6845361,33.4401914 35.6845361,33.8803828 35.7402062,34.2655502 C35.8515464,34.9808612 36.2412371,35.6411483 36.6309278,36.2464115 C37.8556701,38.1172249 39.0804124,39.9330144 40.3051546,41.8038278 C40.7505155,42.5191388 41.2515464,43.1794258 41.6969072,43.8947368 C41.7525773,43.9497608 41.8082474,44.0047847 41.8639175,44.1148325 C42.3092784,43.4545455 42.7546392,42.7392344 43.2,42.0789474 C44.2020619,40.5933014 45.2041237,39.1076555 46.2061856,37.6770335 C46.2618557,37.5669856 46.3175258,37.4569378 46.3175258,37.34689 C46.3175258,36.4114833 46.3175258,35.4210526 46.3175258,34.4856459 L46.3175258,34.2655502 L54,34.2655502 C54,34.430622 54,34.6507177 54,34.8157895 C54,34.8708134 53.8886598,34.9258373 53.8329897,34.9258373 C53.3876289,35.0358852 52.9979381,35.2009569 52.6639175,35.4210526 C52.2742268,35.6961722 52.1072165,36.0813397 52.0515464,36.5215311 C52.0515464,36.7416268 51.9958763,36.9066986 51.9958763,37.1267943 C51.9958763,41.2535885 51.9402062,45.3253589 51.9402062,49.4521531 C51.9402062,50.7727273 51.9402062,52.0933014 51.9958763,53.4138756 C51.9958763,54.2942584 52.4412371,54.8444976 53.2762887,55.1746411 C53.443299,55.2296651 53.6659794,55.284689 53.8329897,55.3397129 C54,55.3947368 54,55.4497608 54,55.5598086 C54,55.7248804 54,55.8349282 54,56 L44.0350515,56 C44.0350515,55.8349282 44.0350515,55.6148325 44.0350515,55.4497608 C44.0350515,55.3947368 44.2020619,55.3397129 44.257732,55.3397129 C44.7587629,55.284689 45.2041237,55.1196172 45.5938144,54.7894737 C45.9835052,54.5143541 46.2061856,54.0741627 46.2061856,53.6339713 C46.2618557,52.6985646 46.2618557,51.7631579 46.2618557,50.8277512 C46.2618557,47.361244 46.2618557,43.8947368 46.2618557,40.4282297 L46.2618557,40.208134 L46.2061856,40.208134 C43.8123711,43.8397129 41.2515464,47.3062201 39.2474227,51.2129187 C37.1319588,47.4712919 34.6268041,44.0047847 32.3443299,40.3732057 L32.2886598,40.3732057 C32.2886598,40.7033493 32.2886598,41.0885167 32.2886598,41.4186603 C32.2329897,43.4545455 32.1773196,45.4354067 32.1773196,47.4712919 C32.1773196,48.9569378 32.3443299,50.3875598 32.7340206,51.8181818 C33.1793814,53.4688995 34.014433,54.8995215 35.4061856,56 L27,56 C27.1113402,55.9449761 27.1670103,55.8349282 27.2226804,55.7799043 C28.5587629,54.6794258 29.5051546,53.3588517 30.0061856,51.708134 C30.3958763,50.4425837 30.6185567,49.1770335 30.7298969,47.8564593 C30.8969072,45.8205742 31.0082474,43.7296651 31.1195876,41.6937799 C31.1752577,40.8684211 31.2309278,40.0430622 31.2865979,39.2727273 C31.2865979,39.1626794 31.2309278,39.1076555 31.1752577,38.9976077 C30.2845361,37.7320574 29.0041237,36.9617225 27.556701,36.576555 C27.4453608,36.576555 27.3896907,36.5215311 27.2783505,36.4665072 C29.7835052,34.4856459 32.6226804,33.3851675 35.6845361,33" id="Path" fill="#FFFFFF" fill-rule="nonzero"></path>
                    <path d="M171.691139,37.4974619 C168.255063,38.0057107 165.663924,40.998731 165.663924,44.5564721 C165.663924,48.0577411 168.255063,51.0507614 171.691139,51.6154822 C164.481013,70.4206853 129.106329,84.5387056 89,84.5387056 C48.95,84.5387056 13.5753165,70.4206853 6.30886076,51.6154822 C9.74493671,51.1072335 12.3360759,48.1142132 12.3360759,44.5564721 C12.3360759,40.998731 9.74493671,38.0621827 6.30886076,37.4974619 C13.5753165,18.6922589 48.95,4.57423858 89,4.57423858 C129.05,4.57423858 164.424684,18.6922589 171.691139,37.4974619 M172.25443,38.1751269 L172.761392,38.1186548 L172.592405,37.6668782 C165.663924,18.3534264 129.725949,3.78362944 89.0563291,3.78362944 C48.3867089,3.78362944 12.3924051,18.3534264 5.46392405,37.6668782 L5.29493671,38.1186548 L5.80189873,38.1751269 C9.06898734,38.4574873 11.6601266,41.2246193 11.6601266,44.5 C11.6601266,47.7753807 9.06898734,50.5989848 5.80189873,50.8248731 L5.29493671,50.8813452 L5.46392405,51.3331218 C12.3924051,70.6465736 48.3303797,85.2163706 89,85.2163706 C129.66962,85.2163706 165.607595,70.6465736 172.536076,51.3331218 L172.705063,50.8813452 L172.198101,50.8248731 C168.931013,50.5425127 166.339873,47.7753807 166.339873,44.5 C166.396203,41.2246193 168.931013,38.4574873 172.25443,38.1751269 M174.84557,40.2081218 C174.225949,39.8692893 173.493671,39.6998731 172.761392,39.6998731 C170.113924,39.6998731 167.917089,41.8458122 167.917089,44.5564721 C167.917089,47.2106599 170.057595,49.4130711 172.761392,49.4130711 C173.493671,49.4130711 174.225949,49.2436548 174.84557,48.9048223 C170.39557,70.194797 133.668987,86.7975888 89,86.7975888 C44.3310127,86.7975888 7.60443038,70.1383249 3.15443038,48.8483503 C3.77405063,49.1871827 4.50632911,49.356599 5.23860759,49.356599 C7.88607595,49.356599 10.0829114,47.2106599 10.0829114,44.5 C10.0829114,41.8458122 7.94240506,39.643401 5.23860759,39.643401 C4.50632911,39.643401 3.77405063,39.8128173 3.15443038,40.1516497 C7.60443038,18.8616751 44.3310127,2.25888325 89,2.25888325 C133.668987,2.25888325 170.39557,18.9181472 174.84557,40.2081218 M178,44.5 C178,19.9346447 138.175316,0 89,0 C39.8246835,0 0,19.9346447 0,44.5 C0,69.0653553 39.8246835,89 89,89 C138.175316,89 178,69.1218274 178,44.5" id="Shape" fill="#FFFFFF" fill-rule="nonzero"></path>
                </g>
            </g>
        </g>
    </g>
</svg>